<?xml version="1.0" encoding="UTF-8" standalone="no"?>
<svg
   xmlns:dc="http://purl.org/dc/elements/1.1/"
   xmlns:cc="http://creativecommons.org/ns#"
   xmlns:rdf="http://www.w3.org/1999/02/22-rdf-syntax-ns#"
   xmlns:svg="http://www.w3.org/2000/svg"
   xmlns="http://www.w3.org/2000/svg"
   id="svg14"
   xml:space="preserve"
   enable-background="new 0 0 1024 1024"
   viewBox="0 0 1024 1024"
   y="0px"
   x="0px"
   version="1.1"><metadata
     id="metadata20"><rdf:RDF><cc:Work
         rdf:about=""><dc:format>image/svg+xml</dc:format><dc:type
           rdf:resource="http://purl.org/dc/dcmitype/StillImage" /></cc:Work></rdf:RDF></metadata><defs
     id="defs18" /><g
     id="g12"
     transform="translate(0,128)"><g
       transform="matrix(1.5516,0,0,1.5516,-282.44,-211.75)"
       id="logo-group"><path
         stroke-miterlimit="2"
         d="m 396.39,484.83 c 2.97,-15.21 -10.08,-19.8 -18.27,-22.32 -5.76,-1.71 -9.54,-3.24 -8.82,-7.56 0.71998,-3.6 3.78,-5.94 8.64,-5.94 5.13,0 10.44,1.8 14.49,4.41 0.81,0.54 1.53,0.45 2.16,-0.27 l 6.3,-8.1 c 0.63,-0.81 0.54,-1.62 -0.27,-2.16 -6.21,-4.59 -12.51,-6.84 -21.06,-6.84 -12.15,0 -22.14,4.86 -24.3,17.46 -2.16,12.78 6.57,18.72 16.2,21.51 6.66,1.89 11.25,3.69 10.53,8.19 -0.72001,4.23 -5.31,6.3 -10.53,6.3 -5.58,0 -10.35,-2.07 -15.3,-5.94 -0.81001,-0.63 -1.62,-0.63 -2.25,0.18 l -6.48,8.01 c -0.62999,0.81 -0.53999,1.62 0.18,2.25 6.12,5.4 12.87,8.73 22.32,8.73 11.7,0 23.58,-3.87 26.46,-17.91 z"
         style="font-variant-ligatures:none;fill:#f8f9fb;stroke-width:0;stroke-miterlimit:2"
         id="path386171" /><path
         stroke-miterlimit="2"
         d="m 413.01,501.57 c 0.99,0 1.53,-0.54 1.71,-1.44 l 7.74,-43.74 c 0.17999,-0.99 -0.36,-1.62 -1.44,-1.62 h -10.44 c -0.9,0 -1.53,0.45 -1.62,1.35 l -7.74,43.74 c -0.18,0.99 0.36,1.71 1.35,1.71 z m 12.42,-59.85 c 0.90001,-4.86 -1.98,-8.46 -6.57,-8.46 -4.14,0 -7.2,2.61 -7.92,6.57 -0.90001,4.68 1.98,8.37 6.57,8.37 4.05,0 7.2,-2.79 7.92,-6.48 z"
         style="font-variant-ligatures:none;fill:#f8f9fb;stroke-width:0;stroke-miterlimit:2"
         id="path386173" /><path
         stroke-miterlimit="2"
         d="m 461.77,457.11 c -2.79,-2.25 -6.66,-3.6 -11.16,-3.6 -5.58,0 -12.15,1.35 -17.46,3.6 -0.81,0.36 -1.17,0.9 -1.35,1.62 l -7.47,41.13 c -0.18,1.08 0.36,1.71 1.35,1.71 h 10.35 c 0.9,0 1.44,-0.45 1.62,-1.44 l 6.12,-33.75 c 1.26,-0.63 3.24,-1.08 5.22,-1.08 4.05,0 5.94,2.52 4.95,8.28 l -4.59,26.28 c -0.18,0.99 0.36,1.71 1.44,1.71 h 10.17 c 0.9,0 1.53,-0.54 1.62,-1.44 l 4.41,-24.66 c 0.54,-3.06 0.54,-6.03 0.09,-8.55 1.62,-0.9 3.87,-1.62 6.03,-1.62 4.32,0 6.39,2.52 5.4,8.28 l -4.59,26.28 c -0.09,0.99 0.36,1.71 1.44,1.71 h 10.17 c 0.9,0 1.53,-0.54 1.62,-1.44 l 4.5,-24.66 c 2.16,-12.78 -4.14,-21.96 -16.56,-21.96 -4.5,0 -9.09,1.35 -13.32,3.6 z"
         style="font-variant-ligatures:none;fill:#f8f9fb;stroke-width:0;stroke-miterlimit:2"
         id="path386175" /><path
         stroke-miterlimit="2"
         d="m 532.04,499.59 c 0.81,-0.27 1.17,-0.9 1.35,-1.71 l 4.05,-22.77 c 2.43,-13.5 -3.87,-21.6 -16.11,-21.6 -7.29,0 -14.04,1.62 -18.36,4.23 -0.54,0.36 -0.54,0.99 -0.27,1.8 l 2.79,7.38 c 0.36,0.99 1.08,1.17 2.07,0.72 2.7,-1.26 6.75,-2.07 10.71,-2.07 5.67,0 6.93,2.43 6.12,6.84 l -0.18,1.44 c -2.25,-0.45 -4.95,-0.72 -7.65,-0.72 -11.52,0 -18.9,3.87 -20.43,12.6 -1.8,9.81 4.59,17.01 17.19,17.01 6.93,0 13.59,-1.35 18.72,-3.15 z m -22.5,-13.14 c 0.45,-2.7 2.79,-4.14 7.2,-4.14 1.98,0 4.05,0.27 5.76,0.63 l -1.26,7.83 c -1.62,0.36 -4.14,0.72 -6.21,0.72 -3.96,0 -6.12,-1.62 -5.49,-5.04 z"
         style="font-variant-ligatures:none;fill:#f8f9fb;stroke-width:0;stroke-miterlimit:2"
         id="path386177" /><path
         stroke-miterlimit="2"
         d="m 576.58,498.87 c 0.98999,-0.54 1.17,-1.26 0.71999,-2.16 l -3.51,-7.74 c -0.45,-0.9 -1.26,-1.08 -2.16,-0.54 -2.88,1.71 -5.94,2.61 -8.46,2.61 -4.41,0 -6.84,-2.79 -5.76,-8.28 l 1.89,-10.62 c 0.81,-4.41 3.69,-6.93 8.46,-6.93 2.52,0 4.95,0.72 6.93,1.89 0.90001,0.54 1.53,0.45 2.16,-0.27 l 5.31,-6.84 c 0.54001,-0.81 0.45,-1.62 -0.27,-2.16 -3.6,-2.61 -8.01,-4.32 -13.68,-4.32 -11.43,0 -20.43,5.85 -22.41,17.19 l -1.98,11.16 c -2.25,12.78 5.13,20.88 17.28,20.88 5.4,0 10.62,-1.17 15.48,-3.87 z"
         style="font-variant-ligatures:none;fill:#f8f9fb;stroke-width:0;stroke-miterlimit:2"
         id="path386179" /><path
         stroke-miterlimit="2"
         d="m 608.91,467.28 c 0.99001,0 1.53,-0.45 1.71,-1.44 l 1.44,-8.28 c 0.18,-0.99 -0.36,-1.71 -1.44,-1.71 h -7.2 l 0.54,-10.71 c 0.09,-0.99 -0.45,-1.62 -1.53,-1.62 h -8.82 c -0.99,0 -1.53,0.54 -1.71,1.44 l -6.75,38.61 c -2.34,13.14 4.05,19.17 14.04,19.17 1.53,0 3.24,-0.18 4.59,-0.45 0.9,-0.09 1.35,-0.63 1.53,-1.53 l 1.44,-8.37 c 0.27,-1.17 -0.36,-1.62 -1.44,-1.53 h -2.43 c -3.69,0 -5.13,-2.16 -4.41,-6.21 l 3.06,-17.37 z"
         style="font-variant-ligatures:none;fill:#f8f9fb;stroke-width:0;stroke-miterlimit:2"
         id="path386181" /><path
         stroke-miterlimit="2"
         d="m 623.95,501.57 c 0.99,0 1.53,-0.54 1.71,-1.44 l 7.74,-43.74 c 0.18,-0.99 -0.36,-1.62 -1.44,-1.62 h -10.44 c -0.90001,0 -1.53,0.45 -1.62,1.35 l -7.74,43.74 c -0.17999,0.99 0.36,1.71 1.35,1.71 z m 12.42,-59.85 c 0.90001,-4.86 -1.98,-8.46 -6.57,-8.46 -4.14,0 -7.2,2.61 -7.92,6.57 -0.9,4.68 1.98,8.37 6.57,8.37 4.05,0 7.2,-2.79 7.92,-6.48 z"
         style="font-variant-ligatures:none;fill:#f8f9fb;stroke-width:0;stroke-miterlimit:2"
         id="path386183" /><path
         stroke-miterlimit="2"
         d="m 673.7,488.79 c 1.89,-10.53 -6.75,-14.85 -13.68,-16.38 -4.32,-0.99 -7.2,-1.8 -6.66,-4.5 0.36,-2.25 2.43,-2.97 5.76,-2.97 3.78,0 7.2,0.81 9.99,2.43 0.9,0.45 1.62,0.36 2.16,-0.45 l 5.31,-7.11 c 0.63,-0.81 0.54,-1.62 -0.36,-2.16 -4.86,-2.79 -9.63,-4.14 -15.84,-4.14 -10.89,0 -18.45,3.87 -20.34,12.96 -1.98,9.72 5.04,15.03 13.86,16.83 3.6,0.81 6.75,1.53 6.12,4.32 -0.45,2.07 -2.61,3.42 -6.93,3.42 -4.23,0 -8.19,-1.26 -11.7,-3.87 -0.81,-0.54 -1.53,-0.45 -2.16,0.36 l -5.13,7.02 c -0.54,0.72 -0.54,1.53 0.27,2.16 4.95,4.05 10.8,6.03 18.27,6.03 11.25,0 19.26,-4.41 21.06,-13.95 z"
         style="font-variant-ligatures:none;fill:#f8f9fb;stroke-width:0;stroke-miterlimit:2"
         id="path386185" /><path
         style="fill:#4ef622;stroke-width:0.75"
         d="m 570.96,265.16 c -0.57338,-0.008 -1.1363,-0.007 -1.251,0.003 -0.11467,0.009 -0.47121,0.0459 -0.7923,0.0813 -0.32109,0.0359 -0.83692,0.11134 -1.1468,0.16847 -0.30941,0.0571 -0.7881,0.16054 -1.0634,0.23018 -0.27522,0.0692 -0.77392,0.21642 -1.108,0.32651 -0.33443,0.11009 -0.84105,0.29816 -1.1259,0.41783 -0.28523,0.11968 -0.79019,0.35571 -1.123,0.52459 -0.33235,0.16889 -0.81105,0.43118 -1.0634,0.58338 -0.25228,0.15179 -0.65594,0.41492 -0.897,0.5838 -0.24102,0.16931 -0.61174,0.44619 -0.82357,0.6155 -0.21183,0.1693 -0.60298,0.5029 -0.86948,0.74142 -0.26646,0.23895 -0.68221,0.64969 -0.92445,0.91365 -0.24227,0.26355 -0.6205,0.70473 -0.83985,0.97995 -0.21976,0.27522 -0.53335,0.69723 -0.69639,0.93825 -0.16346,0.24061 -0.40491,0.61591 -0.53668,0.83318 -0.13177,0.21726 -0.34903,0.60214 -0.48247,0.85485 -0.13344,0.2527 -0.34569,0.69597 -0.47121,0.98497 -0.12594,0.28899 -0.31484,0.76395 -0.42033,1.055 -0.10551,0.29065 -0.26605,0.7956 -0.35654,1.1213 -0.0905,0.3261 -0.2206,0.87405 -0.28857,1.2181 -0.0679,0.34402 -0.15512,0.85987 -0.19306,1.1468 -0.0434,0.32275 -0.078,0.9591 -0.0913,1.6713 -0.0137,0.72058 -0.004,1.3594 0.0271,1.7097 0.0267,0.30775 0.0867,0.81232 0.13345,1.1209 0.0467,0.30858 0.13094,0.76815 0.18681,1.0216 0.0559,0.25312 0.14887,0.63468 0.20684,0.84735 0.0575,0.21267 0.20016,0.66261 0.31692,0.99998 0.11634,0.33735 0.29523,0.80857 0.39739,1.0479 0.10217,0.23894 0.29524,0.65386 0.42951,0.9216 l 0.24395,0.48664 -13.414,13.413 -13.414,13.413 -0.38781,-0.28899 c -0.21351,-0.15888 -0.57921,-0.41866 -0.81315,-0.57754 -0.23394,-0.15888 -0.69681,-0.45203 -1.0283,-0.65135 -0.33151,-0.19891 -0.95287,-0.53877 -1.3807,-0.75435 -0.42785,-0.21559 -1.0762,-0.51666 -1.4403,-0.66846 -0.36446,-0.15178 -1.0192,-0.39489 -1.4549,-0.54043 -0.43576,-0.14553 -1.1768,-0.35987 -1.6472,-0.47621 -0.46996,-0.11634 -1.183,-0.26688 -1.5846,-0.33402 -0.40115,-0.0671 -1.0392,-0.15638 -1.4178,-0.19766 -0.53293,-0.0584 -1.027,-0.0755 -2.1892,-0.0759 -0.96367,-4.2e-4 -1.6876,0.0196 -2.0224,0.055 -0.28648,0.0304 -0.82357,0.10008 -1.193,0.15429 -0.36946,0.0546 -0.98205,0.16597 -1.3611,0.24728 -0.37905,0.0817 -0.95198,0.22268 -1.2731,0.31317 -0.32151,0.0909 -0.85357,0.25688 -1.1826,0.36947 -0.32943,0.11217 -0.84277,0.30232 -1.1409,0.42242 -0.29815,0.12051 -0.9174,0.40324 -1.3761,0.62842 -0.4587,0.22518 -1.0963,0.56378 -1.4174,0.75187 -0.32067,0.18849 -0.80857,0.49332 -1.0842,0.67763 -0.27522,0.1839 -0.68721,0.47371 -0.91492,0.64343 l -0.4185,0.309 -10.463,-10.463 -10.462,-10.463 0.25125,-0.4755 c 0.13844,-0.26188 0.31983,-0.6355 0.40282,-0.83025 0.0834,-0.19516 0.21684,-0.5421 0.2969,-0.77145 0.0801,-0.22935 0.19974,-0.63301 0.26647,-0.89655 0.0667,-0.26396 0.14969,-0.65635 0.18473,-0.87277 0.0346,-0.21601 0.0842,-0.67929 0.1105,-1.0288 0.0359,-0.47704 0.0359,-0.80272 0,-1.3073 -0.0267,-0.36947 -0.0867,-0.89865 -0.13386,-1.1759 -0.0471,-0.2773 -0.14845,-0.73434 -0.2256,-1.0158 -0.0771,-0.28147 -0.2085,-0.69681 -0.29148,-0.9228 -0.0834,-0.22601 -0.28981,-0.69264 -0.4587,-1.0366 -0.1693,-0.34402 -0.44076,-0.8298 -0.60381,-1.0796 -0.16305,-0.24937 -0.42243,-0.6155 -0.57588,-0.8127 -0.15388,-0.19766 -0.49498,-0.58214 -0.75893,-0.85485 -0.26354,-0.27231 -0.65761,-0.6451 -0.8757,-0.82815 -0.21767,-0.18306 -0.64927,-0.50124 -0.9591,-0.70765 -0.30941,-0.20642 -0.84442,-0.51291 -1.1884,-0.68096 -0.34403,-0.16847 -0.81067,-0.37405 -1.0366,-0.45704 -0.22601,-0.083 -0.64218,-0.21392 -0.92452,-0.29148 -0.28231,-0.0771 -0.74435,-0.17931 -1.0275,-0.22643 -0.28273,-0.0475 -0.78608,-0.10676 -1.1188,-0.13178 -0.33235,-0.0254 -0.83902,-0.0338 -1.1259,-0.0188 -0.28648,0.015 -0.73684,0.055 -1.0008,0.0888 -0.26354,0.0338 -0.69514,0.10884 -0.9591,0.1668 -0.26354,0.058 -0.76102,0.1985 -1.105,0.31275 -0.37488,0.12468 -0.9099,0.3482 -1.3344,0.55753 -0.38989,0.19265 -0.92452,0.49456 -1.188,0.67095 -0.26313,0.17639 -0.56337,0.38823 -0.6672,0.47121 -0.10342,0.0826 -0.38489,0.32234 -0.62592,0.53334 -0.24061,0.21058 -0.61133,0.57921 -0.82313,0.81982 -0.21141,0.2402 -0.50873,0.60299 -0.66052,0.80603 -0.15137,0.20308 -0.37822,0.53584 -0.50415,0.73892 -0.12552,0.20308 -0.34152,0.59548 -0.47955,0.8715 -0.13803,0.27605 -0.33151,0.71057 -0.42951,0.96495 -0.098,0.25479 -0.22685,0.63176 -0.2869,0.8382 -0.0596,0.20642 -0.13886,0.50666 -0.17556,0.6672 -0.0367,0.16055 -0.10299,0.53585 -0.14761,0.834 -0.0442,0.29816 -0.0922,0.83273 -0.10634,1.1884 -0.0159,0.39115 -0.006,0.87698 0.0246,1.2302 0.0279,0.32109 0.0955,0.82943 0.15054,1.1292 0.055,0.30024 0.1643,0.76935 0.24311,1.0425 0.0788,0.27356 0.22393,0.70223 0.32276,0.95325 0.0984,0.25103 0.28439,0.66386 0.41325,0.9174 0.12844,0.25354 0.34236,0.63593 0.47496,0.84945 0.13219,0.2135 0.37655,0.57004 0.54252,0.7923 0.16597,0.22226 0.48038,0.6009 0.69931,0.84195 0.2185,0.24061 0.57337,0.58964 0.78855,0.77475 0.21558,0.18515 0.51374,0.43076 0.66261,0.54585 0.14928,0.1151 0.38364,0.28439 0.52125,0.37655 0.13761,0.0922 0.45328,0.2844 0.70139,0.42743 0.24853,0.14303 0.6426,0.34486 0.8757,0.44869 0.23352,0.10383 0.60298,0.25395 0.82065,0.33318 0.21809,0.0797 0.6426,0.20808 0.9441,0.28565 0.30149,0.0771 0.81772,0.18223 1.1468,0.23269 0.47663,0.0734 0.78608,0.093 1.5162,0.0947 0.52125,0.001 1.0796,-0.0204 1.2927,-0.0505 0.20642,-0.0284 0.57254,-0.0909 0.81315,-0.13886 0.24103,-0.0475 0.65386,-0.14929 0.91822,-0.2256 0.26397,-0.0767 0.69556,-0.22601 0.95911,-0.33151 0.26313,-0.10592 0.73141,-0.3236 1.04,-0.48372 l 0.56128,-0.29107 10.458,10.458 10.459,10.459 -0.27814,0.37447 c -0.15304,0.20641 -0.48789,0.69388 -0.74477,1.0838 -0.25687,0.38989 -0.59505,0.93405 -0.75225,1.2093 -0.15679,0.27522 -0.45744,0.85695 -0.66803,1.2927 -0.21101,0.43576 -0.48706,1.055 -0.61465,1.3761 -0.12719,0.32109 -0.30608,0.80145 -0.39741,1.0679 -0.0917,0.26605 -0.24311,0.75683 -0.33652,1.0904 -0.0934,0.33402 -0.22559,0.85732 -0.29356,1.1634 -0.0684,0.30607 -0.1618,0.78142 -0.2085,1.0567 -0.0463,0.27522 -0.11217,0.71599 -0.14553,0.97995 -0.0338,0.26354 -0.0834,0.7698 -0.11009,1.1246 -0.0308,0.40782 -0.0409,1.1363 -0.0271,1.9808 0.0138,0.8115 0.0484,1.5566 0.0888,1.8986 0.0363,0.30941 0.1226,0.90158 0.1914,1.3152 0.0688,0.41366 0.21851,1.1284 0.33277,1.5875 0.11384,0.45953 0.3115,1.1497 0.4391,1.5338 0.12761,0.38406 0.3236,0.927 0.43535,1.2064 0.11217,0.27939 0.28981,0.70099 0.39531,0.93698 0.10509,0.2356 0.26855,0.58297 0.36322,0.77145 0.0947,0.18807 0.31316,0.59548 0.48622,0.90532 0.17264,0.30942 0.4758,0.81608 0.67303,1.1259 0.19766,0.30942 0.53919,0.80941 0.75938,1.1104 l 0.3999,0.54753 -17.276,17.276 -17.276,17.276 -0.0742,-0.0596 c -0.0413,-0.0329 -0.26271,-0.21643 -0.49289,-0.40783 -0.23018,-0.1914 -0.66261,-0.52125 -0.96075,-0.7335 -0.29816,-0.21183 -0.76313,-0.52 -1.0334,-0.68472 -0.2698,-0.16429 -0.75435,-0.43117 -1.0762,-0.59297 -0.32192,-0.16179 -0.73892,-0.35987 -0.92655,-0.44077 -0.18807,-0.0805 -0.53543,-0.21975 -0.77273,-0.30941 -0.23727,-0.0892 -0.6501,-0.22726 -0.91739,-0.30691 -0.26731,-0.0792 -0.67638,-0.19182 -0.90826,-0.2502 -0.23226,-0.0583 -0.6918,-0.15221 -1.0216,-0.20892 -0.32984,-0.0567 -0.7965,-0.12718 -1.0375,-0.15721 -0.27522,-0.0337 -0.93405,-0.0538 -1.7722,-0.0538 -0.85613,0 -1.4912,0.0196 -1.7722,0.055 -0.24061,0.0304 -0.70056,0.10008 -1.0216,0.15513 -0.32109,0.0554 -0.84652,0.16513 -1.1676,0.24436 -0.32109,0.0792 -0.80895,0.21809 -1.0842,0.30858 -0.27522,0.0905 -0.74018,0.26063 -1.0329,0.37781 -0.29315,0.11717 -0.7623,0.32526 -1.0425,0.46203 -0.28064,0.13677 -0.74059,0.38072 -1.0225,0.54252 -0.28148,0.16179 -0.68514,0.40991 -0.89656,0.55127 -0.211,0.14178 -0.57086,0.39865 -0.79897,0.57088 -0.2281,0.17221 -0.60674,0.47787 -0.84067,0.67929 -0.23436,0.20099 -0.65553,0.59631 -0.93615,0.87817 -0.28023,0.28189 -0.69931,0.73934 -0.93113,1.0171 -0.23185,0.2773 -0.58088,0.72766 -0.77602,1.0008 -0.19474,0.27271 -0.50166,0.74017 -0.6818,1.0383 -0.17973,0.29815 -0.45536,0.7977 -0.61257,1.1101 -0.15721,0.31275 -0.38281,0.79898 -0.50123,1.0813 -0.11885,0.2823 -0.30608,0.78645 -0.41617,1.1209 -0.11008,0.33401 -0.25729,0.83273 -0.32651,1.108 -0.0696,0.27522 -0.17306,0.7539 -0.23019,1.0634 -0.0571,0.30941 -0.13718,0.83482 -0.17805,1.1676 -0.055,0.44994 -0.0742,0.90825 -0.0742,1.7931 0,0.70556 0.0221,1.3832 0.0542,1.668 0.03,0.26354 0.0997,0.7506 0.15554,1.0821 0.0555,0.33151 0.16806,0.87487 0.24978,1.2072 0.0822,0.33234 0.2427,0.8853 0.35737,1.2285 0.11468,0.34318 0.31984,0.88485 0.4562,1.2034 0.13635,0.31859 0.33109,0.74434 0.43242,0.94657 0.10134,0.20183 0.29065,0.55253 0.42034,0.7794 0.12969,0.22685 0.41033,0.67512 0.62384,0.99623 0.2135,0.32109 0.59047,0.83692 0.83775,1.1468 0.24728,0.30941 0.78855,0.90195 1.2031,1.316 0.41408,0.4145 1.0062,0.9558 1.316,1.2034 0.30983,0.2477 0.85402,0.64218 1.2093,0.87698 0.3557,0.23477 0.81937,0.525 1.0308,0.64426 0.21141,0.11968 0.65218,0.34569 0.97995,0.50207 0.32734,0.15637 0.8724,0.39073 1.211,0.52041 0.3386,0.12969 0.91072,0.32026 1.2714,0.42409 0.36112,0.10342 0.92865,0.2427 1.2614,0.30942 0.33235,0.0663 0.82065,0.1497 1.0842,0.18431 0.26396,0.035 0.70473,0.0826 0.97995,0.10592 0.27522,0.0229 0.81188,0.0421 1.1926,0.0425 0.38114,4.3e-4 0.9345,-0.0188 1.2302,-0.0417 0.29607,-0.0233 0.7539,-0.0717 1.0174,-0.10716 0.26396,-0.0355 0.71432,-0.11217 1.0008,-0.16972 0.2869,-0.058 0.756,-0.16888 1.0425,-0.24645 0.2869,-0.0776 0.73684,-0.21434 1.0008,-0.30316 0.26396,-0.0892 0.69514,-0.25061 0.9591,-0.35903 0.26396,-0.10801 0.7581,-0.33653 1.0988,-0.50791 0.34027,-0.17097 0.8094,-0.42576 1.0425,-0.56586 0.23268,-0.14012 0.53584,-0.32986 0.67345,-0.4216 0.13761,-0.0917 0.38156,-0.26187 0.5421,-0.37821 0.16055,-0.11635 0.47413,-0.35737 0.69639,-0.53627 0.22268,-0.17848 0.62592,-0.52834 0.89655,-0.7773 0.27063,-0.24895 0.68639,-0.67012 0.92363,-0.93532 0.23769,-0.26563 0.57087,-0.65761 0.741,-0.87113 0.16972,-0.21351 0.45662,-0.60424 0.63676,-0.86775 0.18056,-0.26396 0.43577,-0.65761 0.56754,-0.87487 0.13136,-0.21726 0.34862,-0.60215 0.48206,-0.85485 0.13344,-0.2527 0.34569,-0.69597 0.47121,-0.98498 0.12593,-0.28898 0.31483,-0.76395 0.42033,-1.055 0.10551,-0.29065 0.26605,-0.7956 0.35654,-1.1213 0.0905,-0.3261 0.22059,-0.87405 0.28898,-1.2181 0.068,-0.34403 0.15763,-0.88823 0.19891,-1.2093 0.0592,-0.46037 0.0755,-0.879 0.0755,-1.9808 0,-1.1176 -0.015,-1.5095 -0.0759,-1.9599 -0.0417,-0.30942 -0.1226,-0.80693 -0.17931,-1.105 -0.0571,-0.29816 -0.16806,-0.7881 -0.24729,-1.0892 -0.0788,-0.30066 -0.22935,-0.79815 -0.33443,-1.105 -0.10467,-0.30691 -0.28439,-0.78105 -0.39865,-1.0538 -0.11468,-0.27272 -0.31818,-0.71515 -0.45245,-0.98325 l -0.24436,-0.48748 17.506,-17.506 17.506,-17.506 0.41074,0.30358 c 0.22601,0.1668 0.67346,0.47705 0.99458,0.68888 0.32109,0.21225 0.77145,0.49415 1.0008,0.62634 0.22935,0.13218 0.67971,0.37738 1.0008,0.54418 0.32109,0.16722 0.8373,0.41575 1.1472,0.55211 0.31024,0.13677 0.82605,0.34695 1.1468,0.46746 0.32109,0.12051 0.84607,0.30149 1.1672,0.40199 0.32109,0.10049 0.9216,0.26646 1.3344,0.36862 0.41283,0.10217 1.0842,0.2427 1.492,0.31192 0.40741,0.0692 0.78773,0.12593 0.84443,0.12593 h 0.103 l -0.0104,13.873 -0.0104,13.873 -0.5421,0.113 c -0.29816,0.0621 -0.7014,0.15387 -0.89655,0.20391 -0.19474,0.05 -0.65469,0.19098 -1.0216,0.31359 -0.36696,0.12218 -0.8736,0.31024 -1.1259,0.41783 -0.25229,0.10759 -0.76815,0.3532 -1.1468,0.54544 -0.37822,0.19223 -0.9462,0.51416 -1.2614,0.71515 -0.31566,0.20099 -0.76605,0.50916 -1.0008,0.68429 -0.23518,0.17515 -0.61507,0.47497 -0.84442,0.66637 -0.22935,0.19099 -0.68013,0.61091 -1.0021,0.9324 -0.32151,0.3215 -0.75307,0.7881 -0.9591,1.0366 -0.20558,0.24854 -0.5471,0.6893 -0.75892,0.97995 -0.21184,0.29024 -0.55253,0.8094 -0.75728,1.1534 -0.20433,0.34402 -0.4758,0.83355 -0.60214,1.088 -0.12677,0.25396 -0.31775,0.66679 -0.42492,0.9174 -0.10717,0.2502 -0.2969,0.75517 -0.42159,1.1222 -0.1251,0.36696 -0.30066,0.96742 -0.39073,1.3344 -0.0901,0.36696 -0.20141,0.89235 -0.24728,1.1676 -0.0459,0.27522 -0.11217,0.77647 -0.14762,1.1142 -0.0384,0.36904 -0.0638,1.0091 -0.0638,1.6054 0,0.54544 0.0192,1.198 0.0421,1.4504 0.0234,0.25228 0.0713,0.66511 0.10717,0.9174 0.0354,0.25228 0.12885,0.75892 0.20767,1.1259 0.0784,0.36696 0.21892,0.91987 0.31233,1.2285 0.0934,0.30858 0.23643,0.74017 0.31817,0.9591 0.0817,0.21892 0.2673,0.66803 0.41241,0.99787 0.14553,0.33027 0.39865,0.84608 0.56295,1.1468 0.16429,0.30066 0.49248,0.84023 0.72975,1.1993 0.23686,0.35862 0.61633,0.88402 0.84232,1.1676 0.22644,0.28314 0.60966,0.731 0.85155,0.99457 0.24228,0.26354 0.65844,0.67471 0.9249,0.91365 0.26688,0.23852 0.65844,0.57213 0.8703,0.74142 0.21184,0.16931 0.58255,0.44619 0.82358,0.6155 0.24103,0.16888 0.64468,0.43201 0.897,0.5838 0.25228,0.1522 0.731,0.41449 1.0634,0.58338 0.33277,0.16888 0.83775,0.40491 1.123,0.52459 0.28482,0.11967 0.79148,0.30774 1.1259,0.41783 0.33402,0.11009 0.83273,0.25729 1.108,0.32651 0.27522,0.0696 0.7539,0.17306 1.0634,0.23018 0.30983,0.0571 0.83527,0.1372 1.1676,0.17807 0.45161,0.0554 0.90532,0.0743 1.7931,0.0738 0.86775,-4.2e-4 1.3552,-0.0205 1.8069,-0.0738 0.34026,-0.0401 0.87277,-0.1201 1.1834,-0.17723 0.31108,-0.0575 0.8211,-0.17056 1.133,-0.25145 0.31233,-0.0805 0.82148,-0.23185 1.1309,-0.33611 0.30983,-0.10466 0.82567,-0.3019 1.1468,-0.43826 0.32109,-0.13678 0.82777,-0.37572 1.1259,-0.53084 0.29815,-0.15554 0.74476,-0.40658 0.99247,-0.55837 0.2477,-0.15178 0.63259,-0.4024 0.85485,-0.55753 0.22268,-0.15512 0.63718,-0.4687 0.9216,-0.69722 0.28439,-0.22852 0.75188,-0.64176 1.0388,-0.91867 0.28731,-0.27689 0.72141,-0.73058 0.96495,-1.0083 0.24311,-0.27731 0.5813,-0.68889 0.75143,-0.9141 0.17014,-0.22518 0.44786,-0.61716 0.61716,-0.87068 0.16971,-0.25353 0.44827,-0.70931 0.61966,-1.0125 0.17097,-0.30358 0.40616,-0.7539 0.5225,-1.0016 0.11593,-0.24728 0.30066,-0.67512 0.41033,-0.95033 0.10967,-0.27522 0.27564,-0.73642 0.36904,-1.0254 0.0934,-0.28857 0.21559,-0.7014 0.27189,-0.9174 0.0559,-0.21559 0.14928,-0.62717 0.20724,-0.91365 0.058,-0.28689 0.1347,-0.74643 0.17014,-1.0216 0.0355,-0.27522 0.0834,-0.7539 0.10676,-1.0634 0.0233,-0.30983 0.0422,-0.81645 0.0422,-1.1259 0,-0.30983 -0.0192,-0.82567 -0.043,-1.1468 -0.0238,-0.32109 -0.0809,-0.84652 -0.12718,-1.1676 -0.0459,-0.32109 -0.14054,-0.8436 -0.20976,-1.1609 -0.0692,-0.31734 -0.20099,-0.83355 -0.29231,-1.1468 -0.0918,-0.31317 -0.27106,-0.84195 -0.39824,-1.1743 -0.1276,-0.33277 -0.35987,-0.87277 -0.51625,-1.2002 -0.15637,-0.32775 -0.38238,-0.76852 -0.50206,-0.97995 -0.11927,-0.21141 -0.40949,-0.67554 -0.64427,-1.0308 -0.23477,-0.3557 -0.62925,-0.89985 -0.87697,-1.2093 -0.2477,-0.30941 -0.789,-0.90195 -1.2034,-1.316 -0.41409,-0.41408 -0.98745,-0.9399 -1.2743,-1.1689 -0.28647,-0.22852 -0.70848,-0.54669 -0.9378,-0.7064 -0.22893,-0.15971 -0.66053,-0.43826 -0.9591,-0.61841 -0.29815,-0.18015 -0.84277,-0.47371 -1.2098,-0.65261 -0.36696,-0.17889 -0.89235,-0.41366 -1.1676,-0.52166 -0.27522,-0.10842 -0.69722,-0.26146 -0.93825,-0.34069 -0.24061,-0.0792 -0.72058,-0.21601 -1.0663,-0.30399 -0.3457,-0.088 -0.77273,-0.1839 -0.94868,-0.21351 l -0.32026,-0.0538 v -27.741 l 0.38573,-0.0513 c 0.21225,-0.028 0.71807,-0.11635 1.1238,-0.19599 0.40616,-0.0801 1.0721,-0.23769 1.4804,-0.34987 0.40824,-0.11259 0.987,-0.28897 1.2865,-0.39198 0.29899,-0.103 0.77768,-0.28064 1.0634,-0.39448 0.28565,-0.11384 0.76313,-0.32026 1.0613,-0.45829 0.29815,-0.13802 0.79229,-0.38447 1.098,-0.54751 0.30567,-0.16347 0.74644,-0.41242 0.97996,-0.55336 0.2331,-0.14094 0.59297,-0.36905 0.79935,-0.50666 0.20641,-0.13761 0.58004,-0.39865 0.8307,-0.58004 0.25019,-0.18182 0.47537,-0.33819 0.5004,-0.34737 0.0246,-0.01 4.7488,4.6883 10.498,10.439 l 10.453,10.456 -0.18098,0.32276 c -0.0992,0.17765 -0.27689,0.5321 -0.39407,0.78772 -0.11759,0.25604 -0.28898,0.68305 -0.38114,0.94905 -0.0921,0.26647 -0.22101,0.70307 -0.28689,0.9708 -0.0655,0.26772 -0.15346,0.69014 -0.19557,0.93825 -0.0605,0.35905 -0.0759,0.67846 -0.0755,1.5567 4.1e-4,0.86655 0.0171,1.2085 0.0767,1.5846 0.0421,0.26355 0.1422,0.74227 0.22267,1.0634 0.0805,0.3211 0.22143,0.79021 0.31317,1.0425 0.0917,0.25228 0.28356,0.70264 0.4266,1.0008 0.14261,0.29816 0.38697,0.74852 0.54293,1.0008 0.15637,0.25229 0.41116,0.62759 0.56628,0.83401 0.15555,0.20641 0.45954,0.57212 0.67596,0.81314 0.21601,0.24061 0.5788,0.59882 0.80647,0.79605 0.22768,0.19683 0.56379,0.47121 0.74727,0.61008 0.18348,0.13886 0.50248,0.35862 0.7089,0.48831 0.20641,0.12968 0.5913,0.34528 0.85485,0.47955 0.26396,0.13385 0.69555,0.32901 0.9591,0.43368 0.26396,0.10466 0.6772,0.24728 0.91905,0.31692 0.24185,0.0692 0.62425,0.16429 0.84945,0.21058 0.22559,0.0463 0.63675,0.11259 0.91447,0.14678 0.28815,0.0358 0.8457,0.0625 1.2994,0.0625 0.46203,0 1.0112,-0.0267 1.3119,-0.0642 0.28439,-0.035 0.6968,-0.10217 0.91612,-0.14888 0.21934,-0.0467 0.59631,-0.14178 0.83693,-0.211 0.24102,-0.0692 0.65385,-0.211 0.9174,-0.31483 0.26396,-0.10384 0.6672,-0.28273 0.89655,-0.39783 0.22935,-0.11467 0.58422,-0.31066 0.789,-0.43534 0.20432,-0.12468 0.57963,-0.38281 0.834,-0.57338 0.25395,-0.19056 0.62592,-0.49414 0.8265,-0.6747 0.20057,-0.18056 0.51749,-0.49706 0.70389,-0.70348 0.18682,-0.20641 0.45662,-0.52542 0.59965,-0.7089 0.14344,-0.18348 0.38281,-0.52125 0.53251,-0.7506 0.14928,-0.22935 0.36696,-0.59548 0.4833,-0.8136 0.11635,-0.21851 0.2944,-0.59547 0.39616,-0.83857 0.10174,-0.2427 0.26187,-0.67722 0.35528,-0.96533 0.0938,-0.28773 0.22601,-0.8019 0.29398,-1.1422 0.0676,-0.34026 0.14553,-0.84359 0.17306,-1.1179 0.0313,-0.31567 0.0409,-0.81315 0.0254,-1.3553 -0.0133,-0.47079 -0.0538,-1.0404 -0.0897,-1.2656 -0.0358,-0.2256 -0.10425,-0.59131 -0.15221,-0.81315 -0.0476,-0.22226 -0.17638,-0.67596 -0.28564,-1.0083 -0.10967,-0.33277 -0.29523,-0.8169 -0.41241,-1.0762 -0.1176,-0.25895 -0.3286,-0.67178 -0.46955,-0.9174 -0.14053,-0.24519 -0.37362,-0.61466 -0.51749,-0.8211 -0.14429,-0.20641 -0.41158,-0.55378 -0.59423,-0.77145 -0.18264,-0.21767 -0.55544,-0.61257 -0.82815,-0.87698 -0.27271,-0.26437 -0.68346,-0.62299 -0.91237,-0.79649 -0.22893,-0.17347 -0.55168,-0.40199 -0.71724,-0.50791 -0.16513,-0.10592 -0.46579,-0.28606 -0.66761,-0.3999 -0.20225,-0.11385 -0.60174,-0.30858 -0.88823,-0.43326 -0.28606,-0.12427 -0.69847,-0.2844 -0.91657,-0.35612 -0.21768,-0.0713 -0.5838,-0.1764 -0.81315,-0.23311 -0.22935,-0.0571 -0.58589,-0.13177 -0.7923,-0.16638 -0.20642,-0.0346 -0.56963,-0.0826 -0.8073,-0.10634 -0.23727,-0.0238 -0.7064,-0.0433 -1.0425,-0.0433 -0.3361,0 -0.84773,0.0275 -1.1367,0.0617 -0.2894,0.0337 -0.7581,0.11008 -1.0425,0.16972 -0.28398,0.0601 -0.80693,0.20516 -1.1626,0.32275 -0.42742,0.14178 -0.90322,0.34236 -1.4053,0.59339 l -0.75855,0.37906 -10.448,-10.448 c -5.7525,-5.7375 -10.455,-10.455 -10.455,-10.47 0,-0.0171 0.15637,-0.24228 0.34777,-0.5004 0.19099,-0.25813 0.44119,-0.61049 0.55586,-0.78232 0.11468,-0.17223 0.34153,-0.53126 0.50457,-0.79853 0.16305,-0.2673 0.4291,-0.73225 0.59173,-1.0329 0.16221,-0.30107 0.41492,-0.8061 0.56128,-1.1217 0.14637,-0.31609 0.37364,-0.8457 0.50499,-1.1772 0.13135,-0.33151 0.32192,-0.85612 0.42283,-1.1655 0.10134,-0.30984 0.25771,-0.83528 0.3482,-1.1676 0.0901,-0.33277 0.22935,-0.93323 0.309,-1.3344 0.0796,-0.40158 0.17347,-0.927 0.2085,-1.1676 0.035,-0.24103 0.0951,-0.74769 0.13344,-1.1259 0.0479,-0.47079 0.0705,-1.0829 0.0717,-1.939 0.002,-0.68805 -0.0213,-1.5045 -0.05,-1.814 -0.0283,-0.30984 -0.0792,-0.77895 -0.113,-1.0425 -0.0338,-0.26397 -0.11801,-0.7869 -0.18723,-1.1626 -0.0692,-0.37572 -0.20851,-1.0046 -0.30942,-1.397 -0.10091,-0.39281 -0.27064,-0.9837 -0.37738,-1.314 -0.10634,-0.32985 -0.32526,-0.9303 -0.48581,-1.3344 -0.16054,-0.40366 -0.46746,-1.0909 -0.68138,-1.5266 -0.21434,-0.43577 -0.54334,-1.0542 -0.73142,-1.3744 -0.18807,-0.32067 -0.50623,-0.82733 -0.70681,-1.1259 -0.20058,-0.29899 -0.48872,-0.71224 -0.64093,-0.91785 -0.1522,-0.20559 -0.27647,-0.38364 -0.27647,-0.39615 0,-0.0121 5.9284,-5.9506 13.174,-13.196 l 13.174,-13.174 0.0809,0.0596 c 0.0442,0.0325 0.26647,0.21559 0.4929,0.40699 0.22685,0.1914 0.62842,0.50332 0.89198,0.69306 0.26396,0.19015 0.68471,0.47204 0.93532,0.62675 0.25062,0.15471 0.63927,0.38155 0.86318,0.50374 0.22435,0.12259 0.65344,0.33568 0.9537,0.47329 0.29982,0.13803 0.82147,0.35279 1.1588,0.47747 0.33736,0.1251 0.88575,0.30315 1.2181,0.39657 0.33277,0.0934 0.88612,0.2256 1.2302,0.29356 0.34402,0.068 0.879,0.15763 1.1884,0.19891 0.44661,0.06 0.8478,0.0755 1.939,0.0755 0.8724,0 1.5362,-0.0196 1.814,-0.0538 0.24103,-0.03 0.71015,-0.10091 1.0425,-0.15804 0.33277,-0.0571 0.85987,-0.16805 1.1718,-0.24645 0.31192,-0.0784 0.75307,-0.20183 0.97995,-0.27439 0.22726,-0.0726 0.67554,-0.23352 0.9966,-0.3582 0.32109,-0.12468 0.86527,-0.36529 1.2093,-0.53459 0.34402,-0.16931 0.8478,-0.44036 1.1192,-0.60215 0.27147,-0.16221 0.70307,-0.43827 0.9591,-0.61382 0.25605,-0.17597 0.68139,-0.49206 0.94493,-0.70264 0.26396,-0.21059 0.68596,-0.57171 0.93825,-0.80273 0.25228,-0.23143 0.65928,-0.6426 0.90487,-0.9141 0.2452,-0.27147 0.5788,-0.65928 0.74101,-0.86152 0.16263,-0.20267 0.43744,-0.56838 0.61133,-0.81315 0.17346,-0.2452 0.46287,-0.69222 0.64301,-0.99458 0.18014,-0.3019 0.44911,-0.79185 0.59797,-1.0888 0.14888,-0.29733 0.3678,-0.77145 0.48665,-1.0534 0.11884,-0.28231 0.30607,-0.7869 0.41616,-1.1213 0.11009,-0.33402 0.25729,-0.83273 0.32651,-1.108 0.0696,-0.27522 0.17306,-0.7539 0.23018,-1.0634 0.0571,-0.30983 0.13678,-0.83527 0.17765,-1.1676 0.0542,-0.44744 0.0738,-0.9132 0.0738,-1.7931 0,-0.87615 -0.0192,-1.3528 -0.0738,-1.814 -0.0404,-0.34402 -0.11927,-0.87195 -0.17514,-1.1734 -0.0554,-0.30107 -0.16597,-0.79852 -0.24561,-1.105 -0.0792,-0.30649 -0.21267,-0.7635 -0.29649,-1.0158 -0.0834,-0.25228 -0.23644,-0.67471 -0.33944,-0.93825 -0.103,-0.26396 -0.3336,-0.77977 -0.51249,-1.1468 -0.17889,-0.36696 -0.47705,-0.9174 -0.66261,-1.223 -0.1875,-0.30825 -0.4725,-0.74025 -0.6225,-0.96203 -0.1575,-0.22185 -0.4725,-0.63802 -0.6975,-0.92452 -0.2325,-0.28688 -0.7575,-0.86025 -1.17,-1.2743 -0.4125,-0.41407 -0.99,-0.93997 -1.275,-1.1689 -0.285,-0.22853 -0.705,-0.54255 -0.9225,-0.69765 -0.225,-0.1551 -0.6075,-0.40575 -0.855,-0.55755 -0.2475,-0.15173 -0.6975,-0.40365 -0.9975,-0.55958 -0.2925,-0.156 -0.8025,-0.39532 -1.125,-0.53212 -0.32401,-0.13678 -0.849,-0.33652 -1.1672,-0.44411 -0.31818,-0.10717 -0.86025,-0.26688 -1.2047,-0.35445 -0.34402,-0.0876 -0.91657,-0.20725 -1.2723,-0.26605 -0.35528,-0.0588 -0.834,-0.12676 -1.0634,-0.15137 -0.22935,-0.0246 -0.88612,-0.0513 -1.4595,-0.0588 z m -0.0208,5.4606 c 0.49873,0.009 1.0826,0.0434 1.3156,0.0784 0.23018,0.0346 0.59631,0.10133 0.81315,0.14846 0.21684,0.0471 0.56295,0.1351 0.76935,0.19473 0.20642,0.06 0.59131,0.19349 0.85485,0.29649 0.26396,0.103 0.71975,0.30942 1.0133,0.45787 0.29357,0.14887 0.77566,0.43285 1.0713,0.63134 0.29523,0.19849 0.72641,0.51791 0.95782,0.71015 0.23144,0.19182 0.62759,0.56587 0.88072,0.83107 0.25312,0.2648 0.61716,0.68931 0.8094,0.94328 0.19182,0.25395 0.45537,0.6305 0.58506,0.83692 0.12969,0.20642 0.36238,0.63051 0.51708,0.94245 0.15471,0.3115 0.35904,0.7806 0.45412,1.0425 0.0947,0.26146 0.22058,0.64427 0.27938,0.85065 0.0592,0.20642 0.15221,0.61925 0.20683,0.9174 0.0546,0.29816 0.12219,0.77648 0.14971,1.0634 0.0308,0.32109 0.0409,0.80941 0.0259,1.2718 -0.0134,0.41283 -0.0617,1.0004 -0.10801,1.3056 -0.0463,0.30525 -0.15054,0.8073 -0.23144,1.1155 -0.0813,0.30858 -0.22476,0.7719 -0.319,1.0296 -0.0942,0.25812 -0.29106,0.71307 -0.43743,1.0112 -0.14678,0.29815 -0.38573,0.73225 -0.53168,0.96494 -0.14595,0.23227 -0.39823,0.5984 -0.56086,0.81316 -0.16263,0.21475 -0.4537,0.56295 -0.64635,0.77355 -0.19265,0.211 -0.50666,0.52667 -0.69723,0.70181 -0.19098,0.17514 -0.49873,0.43659 -0.68387,0.58088 -0.18516,0.14428 -0.52459,0.3853 -0.75436,0.53542 -0.22934,0.15012 -0.633,0.38573 -0.89654,0.52376 -0.26355,0.13803 -0.68555,0.33527 -0.93781,0.43827 -0.25228,0.10258 -0.67596,0.25271 -0.94155,0.33318 -0.26562,0.0805 -0.72516,0.19348 -1.0216,0.25103 -0.29648,0.0571 -0.73558,0.12593 -0.97665,0.15263 -0.2406,0.0267 -0.77565,0.048 -1.1884,0.0475 -0.43035,-4.1e-4 -0.98161,-0.0296 -1.2927,-0.068 -0.29815,-0.0371 -0.75765,-0.1151 -1.0216,-0.17389 -0.26354,-0.0584 -0.68596,-0.17263 -0.93824,-0.25353 -0.25229,-0.0809 -0.59006,-0.19933 -0.75061,-0.26314 -0.16054,-0.0634 -0.44118,-0.18639 -0.62341,-0.27313 -0.18223,-0.0863 -0.48247,-0.24186 -0.6672,-0.34486 -0.18473,-0.10342 -0.50457,-0.30024 -0.71099,-0.43785 -0.20641,-0.13761 -0.55335,-0.39156 -0.77145,-0.56461 -0.21767,-0.17306 -0.62258,-0.54044 -0.89947,-0.81645 -0.27647,-0.27605 -0.64469,-0.68055 -0.81735,-0.8982 -0.17306,-0.21809 -0.42743,-0.56587 -0.56587,-0.7731 -0.13845,-0.20725 -0.34778,-0.55044 -0.46579,-0.76268 -0.1176,-0.21225 -0.29857,-0.57379 -0.40199,-0.804 -0.10342,-0.23018 -0.26938,-0.65635 -0.36862,-0.94702 -0.0993,-0.29107 -0.22977,-0.73518 -0.28941,-0.98745 -0.0601,-0.25229 -0.13761,-0.63843 -0.17263,-0.85778 -0.035,-0.21934 -0.0805,-0.68221 -0.10091,-1.0288 -0.0205,-0.34986 -0.0217,-0.90405 -0.002,-1.2481 0.0187,-0.34027 0.0655,-0.81562 0.10299,-1.0562 0.038,-0.24103 0.11259,-0.6255 0.16639,-0.85485 0.0534,-0.22935 0.15596,-0.59965 0.22727,-0.82275 0.0717,-0.22352 0.20641,-0.58923 0.2994,-0.81315 0.093,-0.22435 0.2698,-0.60465 0.39282,-0.84525 0.12301,-0.24103 0.35736,-0.64301 0.52041,-0.89363 0.16347,-0.25103 0.38364,-0.57003 0.48956,-0.7089 0.10591,-0.13927 0.36237,-0.44702 0.57004,-0.68388 0.20767,-0.23727 0.57462,-0.60548 0.81562,-0.81855 0.24061,-0.21309 0.59798,-0.50791 0.79313,-0.65552 0.19557,-0.1472 0.53334,-0.37864 0.7506,-0.51374 0.21725,-0.13511 0.64843,-0.37155 0.95782,-0.52542 0.30983,-0.15387 0.77393,-0.35654 1.0321,-0.45036 0.2577,-0.0942 0.71766,-0.23603 1.0216,-0.31526 0.30399,-0.0792 0.731,-0.17431 0.94867,-0.21058 0.21809,-0.0367 0.55587,-0.083 0.7506,-0.103 0.19516,-0.0204 0.7581,-0.0296 1.251,-0.0213 z m -98.31,13.635 c 0.27981,0.008 0.68847,0.0538 0.927,0.10216 0.23477,0.0479 0.56337,0.13636 0.72975,0.19599 0.1668,0.06 0.45328,0.18431 0.63634,0.27605 0.18348,0.0917 0.47413,0.26146 0.64635,0.37656 0.17223,0.11509 0.51208,0.40823 0.7548,0.65135 0.24312,0.24269 0.53627,0.58254 0.65136,0.7548 0.11509,0.17222 0.28481,0.46287 0.37655,0.64635 0.0917,0.18306 0.21601,0.46954 0.27605,0.63634 0.0596,0.16638 0.14553,0.48539 0.19099,0.7089 0.045,0.2231 0.0942,0.59339 0.10967,0.82275 0.0163,0.24395 0.008,0.5813 -0.0204,0.81315 -0.0267,0.21767 -0.0855,0.55461 -0.13093,0.7481 -0.0459,0.1939 -0.15054,0.51999 -0.23227,0.72516 -0.0822,0.20516 -0.23811,0.5275 -0.34694,0.7164 -0.10884,0.18891 -0.28273,0.4537 -0.38698,0.58881 -0.10383,0.13469 -0.33652,0.39072 -0.51708,0.56878 -0.18056,0.17848 -0.48247,0.43451 -0.67095,0.56921 -0.18848,0.13469 -0.51666,0.32985 -0.72975,0.43368 -0.21267,0.10383 -0.50874,0.22935 -0.65803,0.27939 -0.14887,0.0496 -0.43034,0.12593 -0.6255,0.16971 -0.19473,0.0434 -0.57004,0.0909 -0.834,0.10592 -0.28773,0.0163 -0.64885,0.007 -0.90277,-0.0225 -0.23269,-0.0271 -0.59089,-0.0942 -0.79605,-0.14886 -0.20516,-0.055 -0.54377,-0.17348 -0.7527,-0.26355 -0.20892,-0.0901 -0.525,-0.25437 -0.70265,-0.36487 -0.17764,-0.11093 -0.48331,-0.33527 -0.67971,-0.49916 -0.1965,-0.16425 -0.4695,-0.4335 -0.6075,-0.5985 -0.13725,-0.16575 -0.3555,-0.468 -0.48525,-0.6735 -0.129,-0.20475 -0.3045,-0.53699 -0.3885,-0.738 -0.0847,-0.20175 -0.19875,-0.5325 -0.25275,-0.73575 -0.0546,-0.20307 -0.12135,-0.55961 -0.14845,-0.7923 -0.0296,-0.25395 -0.0388,-0.61507 -0.0225,-0.90277 0.015,-0.26396 0.0626,-0.63926 0.10592,-0.834 0.0438,-0.19516 0.12009,-0.47663 0.16971,-0.6255 0.05,-0.14929 0.17598,-0.44577 0.28023,-0.65928 0.10383,-0.2135 0.29232,-0.53251 0.41866,-0.7089 0.12593,-0.17639 0.31609,-0.41408 0.42242,-0.52876 0.10634,-0.11425 0.3115,-0.31525 0.4562,-0.44661 0.1447,-0.13135 0.38864,-0.32192 0.5421,-0.42409 0.15346,-0.10174 0.44785,-0.26854 0.65427,-0.37113 0.20641,-0.10258 0.49748,-0.2256 0.64635,-0.27313 0.14929,-0.048 0.38823,-0.11634 0.53167,-0.15263 0.14304,-0.0359 0.39657,-0.0826 0.56295,-0.10383 0.16638,-0.0208 0.52751,-0.0309 0.80273,-0.0225 z m 43.434,32.763 c 0.60799,-0.005 1.231,0.0167 1.6309,0.055 0.35612,0.0342 0.92198,0.10925 1.2572,0.1668 0.33568,0.058 0.89655,0.17848 1.2464,0.26771 0.34987,0.0897 0.84278,0.23227 1.0951,0.31692 0.25228,0.0846 0.63718,0.22435 0.85485,0.31066 0.21809,0.0867 0.60548,0.25312 0.86152,0.3703 0.25604,0.11718 0.67846,0.3286 0.93825,0.47038 0.26021,0.14136 0.68889,0.39365 0.95243,0.56044 0.26354,0.1668 0.70473,0.46996 0.97995,0.67346 0.27522,0.20391 0.69764,0.54085 0.93825,0.74935 0.24103,0.2085 0.71974,0.6672 1.0642,1.0196 0.34445,0.35236 0.8073,0.86737 1.0287,1.1443 0.22142,0.27689 0.57962,0.76478 0.79604,1.0842 0.21643,0.31943 0.51208,0.78728 0.65719,1.0396 0.14512,0.25228 0.39032,0.72141 0.54503,1.0425 0.1547,0.32109 0.35945,0.7806 0.45494,1.0216 0.0955,0.2406 0.25396,0.68137 0.35237,0.97995 0.0984,0.29815 0.24603,0.81397 0.32817,1.1468 0.0826,0.33235 0.18682,0.82065 0.23186,1.0846 0.045,0.26396 0.11509,0.75187 0.15554,1.0842 0.0526,0.43451 0.0734,0.9207 0.0743,1.7301 7.5e-4,0.61924 -0.0221,1.3415 -0.0505,1.6054 -0.0283,0.26354 -0.0988,0.76477 -0.15679,1.1138 -0.0575,0.34862 -0.16972,0.89738 -0.24853,1.2197 -0.0792,0.32192 -0.22143,0.82485 -0.31567,1.1171 -0.0947,0.29232 -0.26187,0.75683 -0.37155,1.0321 -0.10967,0.27522 -0.2919,0.69722 -0.40532,0.93825 -0.11342,0.24061 -0.34277,0.68179 -0.50957,0.97995 -0.16722,0.29815 -0.44035,0.74851 -0.60716,1.0008 -0.16722,0.25228 -0.44827,0.65094 -0.62466,0.88612 -0.17681,0.23478 -0.52251,0.65678 -0.76898,0.93825 -0.24645,0.28106 -0.68305,0.73726 -0.97035,1.0142 -0.2869,0.27689 -0.75435,0.69014 -1.0388,0.91868 -0.28439,0.22852 -0.69889,0.5421 -0.9216,0.69722 -0.22226,0.15512 -0.60715,0.40574 -0.85485,0.55753 -0.24769,0.15179 -0.6943,0.40282 -0.99247,0.55836 -0.29816,0.15513 -0.80483,0.39407 -1.1259,0.53043 -0.32109,0.13636 -0.83693,0.33402 -1.1468,0.4391 -0.30942,0.1055 -0.81608,0.25729 -1.1259,0.33777 -0.30942,0.0805 -0.81608,0.19223 -1.1259,0.24895 -0.30942,0.0567 -0.81608,0.13344 -1.1259,0.17097 -0.30941,0.0375 -0.97575,0.0784 -1.4804,0.0913 -0.54335,0.0137 -1.1622,0.003 -1.5183,-0.0251 -0.33068,-0.0262 -0.81855,-0.0763 -1.0842,-0.11092 -0.26604,-0.0346 -0.67095,-0.10091 -0.9003,-0.14678 -0.22935,-0.0463 -0.63468,-0.13845 -0.9003,-0.20475 -0.26605,-0.0663 -0.69765,-0.18891 -0.9591,-0.27314 -0.26188,-0.0838 -0.73851,-0.25562 -1.0596,-0.38197 -0.32109,-0.12594 -0.879,-0.37697 -1.2401,-0.55753 -0.3607,-0.18014 -0.84862,-0.44411 -1.0842,-0.58589 -0.23518,-0.14177 -0.56837,-0.35194 -0.74059,-0.46704 -0.17181,-0.1155 -0.48164,-0.33609 -0.68805,-0.49038 -0.20642,-0.15429 -0.56253,-0.43702 -0.79185,-0.62843 -0.22893,-0.1914 -0.65303,-0.58255 -0.94245,-0.86902 -0.2894,-0.2869 -0.67221,-0.69014 -0.85065,-0.89655 -0.17848,-0.20642 -0.51917,-0.63551 -0.75683,-0.95325 -0.23811,-0.31776 -0.58463,-0.8223 -0.77062,-1.1213 -0.18599,-0.29941 -0.47538,-0.80857 -0.64344,-1.1321 -0.16846,-0.32318 -0.40074,-0.81068 -0.51708,-1.0826 -0.11634,-0.27189 -0.31441,-0.7944 -0.44035,-1.1609 -0.12593,-0.36654 -0.30316,-0.96997 -0.39407,-1.3402 -0.0909,-0.37071 -0.20224,-0.89902 -0.24728,-1.1743 -0.045,-0.27522 -0.103,-0.66595 -0.12844,-0.8682 -0.0258,-0.20267 -0.0621,-0.71516 -0.0805,-1.1396 -0.0188,-0.42409 -0.0183,-1.1101 8.3e-4,-1.5245 0.0188,-0.4145 0.0646,-0.98993 0.10133,-1.2794 0.0367,-0.28899 0.10425,-0.72308 0.15012,-0.96368 0.0454,-0.24103 0.14637,-0.69097 0.22393,-1.0008 0.0776,-0.30983 0.2185,-0.7977 0.31317,-1.0842 0.0951,-0.2869 0.2673,-0.756 0.38364,-1.0425 0.11592,-0.2869 0.34777,-0.7956 0.51499,-1.1309 0.16763,-0.33527 0.40241,-0.77603 0.52208,-0.97995 0.11968,-0.2035 0.38198,-0.61425 0.58297,-0.91238 0.20099,-0.29815 0.56129,-0.78607 0.80025,-1.0842 0.23936,-0.29815 0.66554,-0.78187 0.9474,-1.075 0.28148,-0.29315 0.71099,-0.70765 0.95453,-0.9216 0.24353,-0.21347 0.6305,-0.53456 0.85987,-0.71345 0.22893,-0.17889 0.60423,-0.45078 0.834,-0.60423 0.22935,-0.15346 0.62801,-0.40366 0.88613,-0.55628 0.2577,-0.15303 0.69096,-0.38906 0.96202,-0.525 0.27147,-0.13594 0.71724,-0.34068 0.99083,-0.45495 0.27313,-0.11425 0.6943,-0.27647 0.93495,-0.36028 0.24102,-0.0842 0.69639,-0.22643 1.0125,-0.31567 0.31566,-0.0897 0.85987,-0.2185 1.2093,-0.28648 0.34902,-0.068 0.88822,-0.15303 1.1976,-0.18848 0.30983,-0.0354 0.63801,-0.0713 0.72975,-0.0792 0.0917,-0.008 0.60965,-0.0175 1.1505,-0.0213 z m 43.721,54.582 c 0.32776,-0.002 0.70223,0.0229 0.93825,0.0634 0.21643,0.0367 0.54335,0.11342 0.72683,0.16972 0.18348,0.0567 0.54002,0.20474 0.7923,0.32901 0.25229,0.12469 0.61967,0.34694 0.81608,0.49456 0.19682,0.14762 0.51875,0.43785 0.71557,0.64427 0.19683,0.20682 0.46037,0.53167 0.5863,0.72224 0.12594,0.19015 0.28815,0.46495 0.36071,0.61007 0.0725,0.14512 0.19598,0.45453 0.27397,0.68805 0.078,0.2331 0.17097,0.60215 0.206,0.8202 0.0355,0.21767 0.0642,0.62133 0.0642,0.89655 0,0.27522 -0.0288,0.67846 -0.0642,0.89655 -0.035,0.21767 -0.12802,0.58672 -0.206,0.81983 -0.0776,0.2331 -0.21101,0.56127 -0.29566,0.72975 -0.0847,0.16846 -0.22935,0.41866 -0.32192,0.55627 -0.0926,0.13761 -0.28648,0.39073 -0.43159,0.56295 -0.14512,0.1718 -0.36237,0.39866 -0.4833,0.50374 -0.12052,0.10508 -0.33569,0.27647 -0.47789,0.38072 -0.1422,0.10425 -0.44285,0.28481 -0.66886,0.40074 -0.22602,0.11592 -0.55921,0.26062 -0.7406,0.32151 -0.18181,0.0609 -0.51875,0.14761 -0.74894,0.19265 -0.28647,0.0554 -0.59672,0.0817 -0.98242,0.0822 -0.33319,4.2e-4 -0.72141,-0.0263 -0.94912,-0.0659 -0.21184,-0.0367 -0.55545,-0.12259 -0.7635,-0.19057 -0.20767,-0.068 -0.56671,-0.22017 -0.79688,-0.3386 -0.2306,-0.11842 -0.57171,-0.32818 -0.7581,-0.46579 -0.18598,-0.13803 -0.46204,-0.37404 -0.61299,-0.52542 -0.15137,-0.15095 -0.39031,-0.43034 -0.53125,-0.62133 -0.14137,-0.19098 -0.35988,-0.55294 -0.48581,-0.80437 -0.12593,-0.25187 -0.27564,-0.61174 -0.33277,-0.7998 -0.0571,-0.18849 -0.13218,-0.50916 -0.16763,-0.71266 -0.0355,-0.20599 -0.0638,-0.61549 -0.0638,-0.92242 0,-0.31025 0.0284,-0.71433 0.0646,-0.92243 0.0355,-0.2035 0.12802,-0.56128 0.206,-0.7944 0.078,-0.23352 0.20141,-0.54293 0.27439,-0.68805 0.0725,-0.14512 0.23394,-0.42076 0.35821,-0.61174 0.12425,-0.1914 0.40323,-0.53084 0.61965,-0.7539 0.21684,-0.22351 0.54294,-0.51333 0.72475,-0.64426 0.18182,-0.13094 0.51542,-0.33194 0.74101,-0.44702 0.22518,-0.11468 0.58839,-0.26397 0.8061,-0.33111 0.21809,-0.0671 0.54627,-0.14928 0.72975,-0.1818 0.18348,-0.0329 0.5788,-0.0613 0.87862,-0.0634 z m -106.26,10.943 c 0.8628,0.0109 1.1868,0.0317 1.5867,0.10049 0.27647,0.0479 0.71766,0.14262 0.97995,0.21017 0.26271,0.0679 0.70139,0.20308 0.97492,0.30024 0.27314,0.0972 0.78938,0.32234 1.1468,0.49957 0.35696,0.17764 0.87443,0.47288 1.1497,0.65677 0.27522,0.18348 0.66011,0.46121 0.85485,0.61716 0.19474,0.15555 0.58046,0.50916 0.85695,0.78525 0.27605,0.27647 0.62967,0.66178 0.78517,0.85695 0.15596,0.19474 0.43368,0.57963 0.61758,0.85485 0.1839,0.27522 0.49164,0.81938 0.68346,1.2093 0.21017,0.42701 0.43118,0.95745 0.55587,1.3344 0.11342,0.34403 0.25395,0.84105 0.31233,1.105 0.058,0.26396 0.13594,0.7235 0.17305,1.0216 0.0413,0.33527 0.0667,0.85238 0.0663,1.3552 -8.2e-4,0.50332 -0.0267,1.0037 -0.068,1.3136 -0.0367,0.27522 -0.10508,0.68805 -0.15263,0.9174 -0.0471,0.22935 -0.15095,0.63259 -0.2306,0.89655 -0.0796,0.26354 -0.22684,0.67929 -0.32692,0.92363 -0.10008,0.24436 -0.26897,0.61758 -0.3753,0.82942 -0.10634,0.21226 -0.29858,0.55628 -0.42701,0.76523 -0.12801,0.20892 -0.38697,0.5863 -0.57546,0.83857 -0.18807,0.25229 -0.48955,0.62258 -0.67012,0.82313 -0.18056,0.20058 -0.49706,0.5175 -0.70347,0.70389 -0.20642,0.18682 -0.52542,0.45662 -0.7089,0.59965 -0.18348,0.14345 -0.525,0.38573 -0.75938,0.53876 -0.23394,0.15304 -0.65677,0.39615 -0.93907,0.54044 -0.28273,0.14428 -0.71057,0.33902 -0.95078,0.43285 -0.24019,0.0938 -0.65886,0.2381 -0.93075,0.32025 -0.27188,0.0822 -0.74101,0.19515 -1.0425,0.25062 -0.30149,0.0554 -0.78982,0.12343 -1.085,0.15095 -0.32276,0.0304 -0.83858,0.0412 -1.2927,0.0275 -0.41575,-0.0125 -0.97163,-0.0542 -1.2356,-0.0934 -0.26355,-0.0388 -0.7623,-0.14219 -1.108,-0.22976 -0.34528,-0.0872 -0.81442,-0.22769 -1.0425,-0.3115 -0.22768,-0.0838 -0.71432,-0.29941 -1.0813,-0.4783 -0.36696,-0.17889 -0.90158,-0.48247 -1.1884,-0.6747 -0.28648,-0.19182 -0.65803,-0.45787 -0.82523,-0.59173 -0.16722,-0.13344 -0.48455,-0.41492 -0.70556,-0.62508 -0.22101,-0.21059 -0.5788,-0.58922 -0.7956,-0.8415 -0.21684,-0.25229 -0.55961,-0.70765 -0.76147,-1.012 -0.20183,-0.304 -0.48206,-0.77813 -0.62217,-1.0534 -0.14053,-0.2748 -0.33985,-0.71056 -0.44327,-0.96787 -0.10342,-0.2573 -0.25062,-0.6843 -0.32735,-0.9483 -0.0763,-0.26438 -0.17805,-0.67763 -0.22559,-0.91823 -0.048,-0.24102 -0.11051,-0.60673 -0.1397,-0.81315 -0.0309,-0.216 -0.0534,-0.78232 -0.0534,-1.3344 -4.1e-4,-0.70848 0.0196,-1.1008 0.0767,-1.5012 0.0421,-0.29815 0.14845,-0.82357 0.23602,-1.1676 0.0876,-0.34402 0.22435,-0.804 0.30399,-1.0216 0.0797,-0.21809 0.22018,-0.56628 0.31233,-0.77437 0.0917,-0.20767 0.2648,-0.55503 0.38406,-0.77145 0.11927,-0.21643 0.33527,-0.57171 0.47955,-0.78938 0.14429,-0.21809 0.37364,-0.53709 0.50958,-0.7089 0.13594,-0.17222 0.38572,-0.46287 0.55503,-0.64635 0.1693,-0.18348 0.47788,-0.48997 0.68513,-0.68096 0.20725,-0.19099 0.54835,-0.47663 0.75772,-0.63467 0.20934,-0.15846 0.57504,-0.412 0.81315,-0.56378 0.23769,-0.1518 0.67638,-0.39407 0.97455,-0.53919 0.29816,-0.14469 0.71933,-0.33193 0.93615,-0.41658 0.21684,-0.0842 0.6205,-0.21517 0.89655,-0.29106 0.27648,-0.0755 0.65803,-0.16931 0.84818,-0.20809 0.19015,-0.0388 0.53751,-0.0963 0.77145,-0.1276 0.29649,-0.0396 0.75517,-0.053 1.51,-0.0434 z m 62.925,5.4314 c 0.25228,0.009 0.64635,0.0358 0.8757,0.0592 0.22935,0.0238 0.65928,0.0897 0.9558,0.14719 0.29649,0.0571 0.74685,0.16722 1.0008,0.24437 0.25396,0.0771 0.67804,0.22726 0.94155,0.33318 0.26396,0.10592 0.69556,0.30566 0.9591,0.44327 0.26396,0.13803 0.71432,0.40741 1.0008,0.5984 0.2869,0.1914 0.67137,0.47246 0.85485,0.62466 0.18348,0.15221 0.52834,0.4683 0.76605,0.70223 0.23769,0.23436 0.59089,0.618 0.7848,0.85275 0.1939,0.23519 0.4929,0.63843 0.6647,0.89655 0.17138,0.25813 0.44911,0.74143 0.61716,1.0742 0.16805,0.33235 0.39073,0.83025 0.49498,1.1059 0.10425,0.27564 0.24686,0.71683 0.3165,0.97995 0.0697,0.26313 0.1643,0.68847 0.20975,0.9453 0.0459,0.25645 0.1055,0.71641 0.13261,1.0216 0.0296,0.33485 0.0392,0.82777 0.0233,1.243 -0.0142,0.37822 -0.0622,0.93202 -0.10675,1.2302 -0.0446,0.29815 -0.13803,0.76815 -0.20767,1.0446 -0.07,0.27647 -0.19432,0.69514 -0.27605,0.93075 -0.0821,0.23519 -0.23519,0.62425 -0.34028,0.86445 -0.10508,0.23977 -0.32192,0.66553 -0.48246,0.94575 -0.16013,0.28022 -0.41826,0.68763 -0.57421,0.9057 -0.15596,0.21767 -0.43368,0.57546 -0.61758,0.79477 -0.18389,0.21934 -0.52041,0.57588 -0.74809,0.7923 -0.2281,0.21642 -0.61049,0.54711 -0.84983,0.73434 -0.23936,0.18723 -0.63175,0.46578 -0.87195,0.61883 -0.23977,0.15345 -0.71766,0.417 -1.0617,0.58672 -0.37572,0.18473 -0.9024,0.39906 -1.3186,0.53667 -0.38114,0.12594 -0.92535,0.27522 -1.2093,0.33235 -0.28398,0.0571 -0.68513,0.12761 -0.89152,0.15721 -0.22601,0.0325 -0.77392,0.0534 -1.3761,0.0529 -0.74977,-0.001 -1.1264,-0.0205 -1.5012,-0.0771 -0.27522,-0.0412 -0.78188,-0.14679 -1.1259,-0.23394 -0.34403,-0.0871 -0.83445,-0.2356 -1.0892,-0.32943 -0.25521,-0.0942 -0.64386,-0.25437 -0.86318,-0.35611 -0.21976,-0.10217 -0.55503,-0.27439 -0.7456,-0.38323 -0.19015,-0.10883 -0.50999,-0.30733 -0.71056,-0.44119 -0.20058,-0.13385 -0.55712,-0.39739 -0.7923,-0.58629 -0.23519,-0.18848 -0.62633,-0.54294 -0.86903,-0.78728 -0.24228,-0.24436 -0.58296,-0.61966 -0.75682,-0.834 -0.17431,-0.21433 -0.45995,-0.6059 -0.63509,-0.86947 -0.17557,-0.26396 -0.4758,-0.79853 -0.66804,-1.1884 -0.19224,-0.3899 -0.42576,-0.9303 -0.51874,-1.2014 -0.0934,-0.27063 -0.21726,-0.67887 -0.2748,-0.90653 -0.058,-0.22809 -0.1422,-0.6305 -0.18723,-0.8949 -0.045,-0.26395 -0.10217,-0.78142 -0.12677,-1.15 -0.0317,-0.4783 -0.0313,-0.85567 8.3e-4,-1.3168 0.025,-0.3557 0.0826,-0.86572 0.1276,-1.133 0.0455,-0.2673 0.12218,-0.64593 0.17014,-0.84067 0.048,-0.19516 0.15888,-0.57129 0.24686,-0.8361 0.088,-0.2648 0.26271,-0.71141 0.38823,-0.99203 0.12552,-0.28064 0.36321,-0.74185 0.52876,-1.025 0.16555,-0.28273 0.48038,-0.75562 0.70014,-1.0513 0.25103,-0.33777 0.63218,-0.76935 1.027,-1.1638 0.36738,-0.36738 0.8265,-0.77438 1.1072,-0.98243 0.26396,-0.19557 0.63467,-0.4537 0.82403,-0.57337 0.18931,-0.1201 0.56461,-0.33026 0.834,-0.46704 0.26938,-0.13719 0.68388,-0.32526 0.92114,-0.41825 0.23728,-0.093 0.60549,-0.22268 0.81736,-0.28815 0.21225,-0.065 0.59964,-0.16596 0.86107,-0.22351 0.26146,-0.0575 0.62384,-0.12677 0.8052,-0.15346 0.1814,-0.0262 0.56587,-0.0625 0.85485,-0.0801 0.28856,-0.0171 0.73141,-0.0242 0.9837,-0.015 z"
         id="icon" /></g></g></svg>