<?xml version="1.0" encoding="UTF-8" standalone="no"?>
<svg
   xmlns:dc="http://purl.org/dc/elements/1.1/"
   xmlns:cc="http://creativecommons.org/ns#"
   xmlns:rdf="http://www.w3.org/1999/02/22-rdf-syntax-ns#"
   xmlns:svg="http://www.w3.org/2000/svg"
   xmlns="http://www.w3.org/2000/svg"
   id="svg4"
   xml:space="preserve"
   viewBox="0 0 1024 768"
   y="0px"
   x="0px"
   version="1.1"><metadata
     id="metadata10"><rdf:RDF><cc:Work
         rdf:about=""><dc:format>image/svg+xml</dc:format><dc:type
           rdf:resource="http://purl.org/dc/dcmitype/StillImage" /></cc:Work></rdf:RDF></metadata><defs
     id="defs8" /><path
     id="path2"
     d="m603.49 199.69c-0.89-0.01-1.76-0.01-1.94 0-0.18 0.02-0.73 0.08-1.23 0.13-0.5 0.06-1.3 0.17-1.78 0.26s-1.22 0.25-1.65 0.36c-0.42 0.1-1.2 0.33-1.72 0.51-0.52 0.17-1.3 0.46-1.74 0.64-0.45 0.19-1.23 0.56-1.75 0.82-0.51 0.26-1.25 0.67-1.64 0.9-0.4 0.24-1.02 0.65-1.4 0.91-0.37 0.26-0.95 0.69-1.27 0.95-0.33 0.27-0.94 0.78-1.35 1.15-0.42 0.37-1.06 1.01-1.44 1.42s-0.96 1.09-1.3 1.52-0.83 1.08-1.08 1.46c-0.26 0.37-0.63 0.95-0.83 1.29-0.21 0.34-0.55 0.94-0.75 1.33-0.21 0.39-0.54 1.08-0.74 1.53-0.19 0.44-0.48 1.18-0.65 1.63-0.16 0.45-0.41 1.24-0.55 1.74-0.14 0.51-0.34 1.36-0.45 1.89-0.1 0.54-0.24 1.34-0.3 1.78-0.07 0.5-0.12 1.49-0.14 2.6s-0.01 2.1 0.04 2.65c0.04 0.48 0.14 1.26 0.21 1.74s0.2 1.19 0.29 1.58c0.09 0.4 0.23 0.99 0.32 1.32s0.31 1.02 0.49 1.55c0.18 0.52 0.46 1.25 0.62 1.62 0.16 0.38 0.46 1.02 0.67 1.43l0.37 0.76-20.81 20.81-20.81 20.81-0.6-0.44c-0.34-0.25-0.9-0.65-1.27-0.9-0.36-0.25-1.08-0.7-1.59-1.01-0.52-0.31-1.48-0.84-2.14-1.17-0.67-0.34-1.68-0.8-2.24-1.04-0.57-0.23-1.58-0.61-2.26-0.84-0.67-0.22-1.82-0.55-2.55-0.74-0.73-0.18-1.84-0.41-2.46-0.52-0.62-0.1-1.61-0.24-2.2-0.3-0.83-0.09-1.59-0.12-3.4-0.12-1.49 0-2.62 0.03-3.14 0.09-0.44 0.04-1.27 0.15-1.85 0.24-0.57 0.08-1.52 0.25-2.11 0.38s-1.48 0.34-1.98 0.48c-0.49 0.15-1.32 0.4-1.83 0.58-0.51 0.17-1.31 0.47-1.77 0.65-0.46 0.19-1.42 0.63-2.14 0.98-0.71 0.35-1.7 0.87-2.19 1.17-0.5 0.29-1.26 0.76-1.69 1.05-0.42 0.28-1.06 0.73-1.42 1l-0.64 0.47-16.24-16.23-16.24-16.24 0.39-0.73c0.22-0.41 0.5-0.99 0.63-1.29s0.34-0.84 0.46-1.2c0.13-0.35 0.31-0.98 0.41-1.39 0.11-0.41 0.24-1.02 0.29-1.35 0.05-0.34 0.13-1.06 0.17-1.6 0.06-0.74 0.06-1.25 0-2.03-0.04-0.57-0.13-1.39-0.2-1.82-0.08-0.43-0.24-1.14-0.36-1.58s-0.32-1.08-0.45-1.43-0.45-1.08-0.71-1.61-0.68-1.29-0.94-1.67c-0.25-0.39-0.65-0.96-0.89-1.27-0.24-0.3-0.77-0.9-1.18-1.32-0.41-0.43-1.02-1-1.36-1.29-0.33-0.28-1-0.78-1.48-1.1s-1.31-0.79-1.85-1.05c-0.53-0.26-1.26-0.58-1.61-0.71s-0.99-0.33-1.43-0.45-1.16-0.28-1.6-0.36c-0.44-0.07-1.22-0.16-1.73-0.2-0.52-0.04-1.3-0.05-1.75-0.03-0.44 0.03-1.14 0.09-1.55 0.14s-1.08 0.17-1.49 0.26-1.18 0.31-1.71 0.48c-0.59 0.2-1.42 0.54-2.08 0.87-0.6 0.3-1.43 0.77-1.84 1.04s-0.87 0.6-1.03 0.73-0.6 0.5-0.97 0.83c-0.38 0.32-0.95 0.9-1.28 1.27s-0.79 0.94-1.03 1.25c-0.23 0.32-0.58 0.83-0.78 1.15-0.19 0.31-0.53 0.92-0.74 1.35-0.22 0.43-0.52 1.1-0.67 1.5-0.15 0.39-0.35 0.98-0.44 1.3-0.1 0.32-0.22 0.78-0.28 1.03-0.05 0.25-0.16 0.84-0.23 1.3-0.06 0.46-0.14 1.29-0.16 1.84-0.03 0.61-0.01 1.36 0.04 1.91 0.04 0.5 0.14 1.29 0.23 1.75 0.08 0.47 0.26 1.2 0.38 1.62s0.34 1.09 0.5 1.48c0.15 0.39 0.44 1.03 0.64 1.42s0.53 0.99 0.74 1.32c0.2 0.33 0.58 0.89 0.84 1.23 0.26 0.35 0.74 0.93 1.08 1.31 0.34 0.37 0.89 0.91 1.23 1.2 0.33 0.29 0.79 0.67 1.02 0.85 0.24 0.17 0.6 0.44 0.81 0.58 0.22 0.14 0.71 0.44 1.09 0.66 0.39 0.22 1 0.54 1.36 0.7s0.94 0.39 1.27 0.52c0.34 0.12 1 0.32 1.47 0.44s1.27 0.28 1.78 0.36c0.74 0.11 1.22 0.15 2.35 0.15 0.81 0 1.68-0.04 2.01-0.08 0.32-0.05 0.89-0.14 1.26-0.22 0.37-0.07 1.01-0.23 1.42-0.35s1.08-0.35 1.49-0.51 1.14-0.5 1.61-0.75l0.88-0.45 16.22 16.22 16.23 16.23-0.43 0.58c-0.24 0.32-0.76 1.08-1.16 1.69-0.39 0.6-0.92 1.44-1.16 1.87-0.25 0.43-0.71 1.33-1.04 2.01-0.33 0.67-0.76 1.63-0.95 2.13-0.2 0.5-0.48 1.25-0.62 1.66s-0.38 1.17-0.52 1.69c-0.15 0.52-0.35 1.33-0.46 1.81-0.1 0.47-0.25 1.21-0.32 1.64-0.07 0.42-0.18 1.11-0.23 1.52-0.05 0.4-0.13 1.19-0.17 1.74-0.05 0.63-0.06 1.76-0.04 3.07 0.02 1.26 0.08 2.42 0.14 2.95 0.05 0.48 0.19 1.4 0.29 2.04 0.11 0.64 0.34 1.75 0.52 2.46 0.18 0.72 0.48 1.79 0.68 2.38 0.2 0.6 0.5 1.44 0.68 1.88 0.17 0.43 0.45 1.08 0.61 1.45s0.42 0.9 0.57 1.2c0.14 0.29 0.48 0.92 0.75 1.4s0.74 1.27 1.04 1.75c0.31 0.48 0.84 1.25 1.18 1.72l0.62 0.85-26.8 26.81-26.81 26.81-0.12-0.1c-0.06-0.05-0.4-0.33-0.76-0.63s-1.03-0.81-1.49-1.14-1.19-0.81-1.6-1.06c-0.42-0.26-1.17-0.67-1.67-0.92s-1.15-0.56-1.44-0.69c-0.29-0.12-0.83-0.34-1.2-0.47-0.37-0.14-1.01-0.36-1.42-0.48-0.42-0.12-1.05-0.3-1.41-0.39s-1.08-0.24-1.59-0.32c-0.51-0.09-1.23-0.2-1.61-0.25-0.43-0.05-1.45-0.08-2.75-0.08-1.33 0-2.31 0.03-2.75 0.08-0.37 0.05-1.09 0.16-1.58 0.24-0.5 0.09-1.32 0.26-1.81 0.38-0.5 0.13-1.26 0.34-1.69 0.48s-1.15 0.41-1.6 0.59c-0.46 0.18-1.18 0.5-1.62 0.72-0.43 0.21-1.15 0.59-1.59 0.84-0.43 0.25-1.06 0.63-1.39 0.85-0.32 0.22-0.88 0.62-1.24 0.89-0.35 0.27-0.94 0.74-1.3 1.05s-1.02 0.93-1.45 1.37c-0.44 0.43-1.09 1.14-1.45 1.57s-0.9 1.13-1.2 1.56c-0.3 0.42-0.78 1.15-1.06 1.61s-0.71 1.23-0.95 1.72c-0.24 0.48-0.59 1.24-0.78 1.68-0.18 0.43-0.47 1.22-0.64 1.74s-0.4 1.29-0.51 1.72c-0.11 0.42-0.27 1.17-0.36 1.65s-0.21 1.29-0.27 1.81c-0.09 0.7-0.12 1.41-0.12 2.78 0 1.09 0.04 2.15 0.09 2.59 0.04 0.41 0.15 1.16 0.24 1.68 0.08 0.51 0.26 1.35 0.39 1.87 0.12 0.52 0.37 1.37 0.55 1.91 0.18 0.53 0.5 1.37 0.71 1.86 0.21 0.5 0.51 1.16 0.67 1.47 0.16 0.32 0.45 0.86 0.65 1.21s0.64 1.05 0.97 1.55 0.91 1.3 1.3 1.78c0.38 0.48 1.22 1.4 1.87 2.04 0.64 0.64 1.56 1.48 2.04 1.87 0.48 0.38 1.32 0.99 1.87 1.36 0.56 0.36 1.28 0.81 1.6 1 0.33 0.18 1.01 0.53 1.52 0.78 0.51 0.24 1.36 0.6 1.88 0.8 0.53 0.2 1.41 0.5 1.97 0.66s1.45 0.38 1.96 0.48c0.52 0.1 1.28 0.23 1.68 0.29 0.41 0.05 1.1 0.12 1.52 0.16 0.43 0.04 1.27 0.07 1.86 0.07s1.45-0.03 1.9-0.07c0.46-0.03 1.17-0.11 1.58-0.16 0.41-0.06 1.11-0.18 1.56-0.27 0.44-0.09 1.17-0.26 1.61-0.38 0.45-0.12 1.15-0.33 1.56-0.47s1.08-0.39 1.49-0.56c0.4-0.16 1.17-0.52 1.7-0.78 0.53-0.27 1.26-0.67 1.62-0.88 0.36-0.22 0.83-0.51 1.04-0.66 0.22-0.14 0.59-0.4 0.84-0.58s0.74-0.56 1.08-0.84c0.35-0.27 0.98-0.82 1.4-1.2 0.41-0.39 1.06-1.04 1.43-1.45 0.37-0.42 0.88-1.02 1.15-1.35 0.26-0.34 0.71-0.94 0.99-1.35s0.67-1.02 0.88-1.36c0.2-0.34 0.54-0.93 0.74-1.33 0.21-0.39 0.54-1.08 0.73-1.52 0.2-0.45 0.49-1.19 0.66-1.64 0.16-0.45 0.41-1.24 0.55-1.74 0.14-0.51 0.34-1.36 0.45-1.89 0.1-0.53 0.24-1.38 0.31-1.88 0.09-0.71 0.11-1.36 0.11-3.07 0-1.73-0.02-2.34-0.11-3.04-0.07-0.48-0.19-1.25-0.28-1.72-0.09-0.46-0.26-1.22-0.38-1.69-0.13-0.46-0.36-1.23-0.52-1.71-0.17-0.48-0.44-1.21-0.62-1.64-0.18-0.42-0.5-1.1-0.7-1.52l-0.38-0.76 27.16-27.16 27.16-27.17 0.64 0.48c0.35 0.25 1.05 0.74 1.54 1.06 0.5 0.33 1.2 0.77 1.56 0.98 0.35 0.2 1.05 0.58 1.55 0.84s1.3 0.64 1.78 0.86c0.48 0.21 1.28 0.54 1.78 0.72 0.5 0.19 1.31 0.47 1.81 0.63 0.5 0.15 1.43 0.41 2.07 0.57s1.68 0.38 2.32 0.48c0.63 0.11 1.22 0.2 1.31 0.2h0.16l-0.02 21.52-0.01 21.53-0.85 0.17c-0.46 0.1-1.08 0.24-1.39 0.32-0.3 0.08-1.01 0.3-1.58 0.49s-1.36 0.48-1.75 0.65c-0.39 0.16-1.19 0.54-1.78 0.84s-1.47 0.8-1.96 1.11-1.19 0.79-1.55 1.06c-0.37 0.27-0.95 0.74-1.31 1.04-0.35 0.29-1.06 0.94-1.56 1.44-0.49 0.5-1.16 1.23-1.48 1.61-0.32 0.39-0.85 1.07-1.18 1.52s-0.86 1.26-1.18 1.79c-0.31 0.54-0.73 1.3-0.93 1.69-0.2 0.4-0.49 1.04-0.66 1.42-0.17 0.39-0.46 1.18-0.65 1.75-0.2 0.56-0.47 1.5-0.61 2.07-0.14 0.56-0.31 1.38-0.38 1.81s-0.18 1.2-0.23 1.73c-0.06 0.57-0.1 1.56-0.1 2.49 0 0.84 0.03 1.86 0.06 2.25 0.04 0.39 0.12 1.03 0.17 1.42 0.06 0.39 0.2 1.18 0.32 1.75s0.34 1.43 0.49 1.9c0.14 0.48 0.36 1.15 0.49 1.49s0.42 1.04 0.64 1.55c0.23 0.51 0.62 1.31 0.88 1.78 0.25 0.47 0.76 1.3 1.13 1.86 0.36 0.56 0.95 1.37 1.3 1.81 0.36 0.44 0.95 1.14 1.33 1.55 0.37 0.41 1.02 1.04 1.43 1.41s1.02 0.89 1.35 1.15c0.33 0.27 0.9 0.7 1.28 0.96 0.37 0.26 1 0.67 1.39 0.91 0.39 0.23 1.13 0.64 1.65 0.9s1.3 0.63 1.74 0.81c0.44 0.19 1.23 0.48 1.75 0.65s1.29 0.4 1.72 0.51 1.17 0.27 1.65 0.36c0.48 0.08 1.29 0.21 1.81 0.27 0.7 0.09 1.41 0.12 2.78 0.12 1.35 0 2.11-0.03 2.81-0.12 0.52-0.06 1.35-0.18 1.83-0.27s1.28-0.27 1.76-0.39c0.48-0.13 1.28-0.36 1.76-0.52 0.48-0.17 1.28-0.47 1.78-0.68 0.49-0.22 1.28-0.59 1.74-0.83s1.16-0.63 1.54-0.86c0.39-0.24 0.98-0.63 1.33-0.87 0.34-0.24 0.99-0.73 1.43-1.08s1.16-1 1.61-1.43 1.12-1.13 1.5-1.56c0.37-0.43 0.9-1.07 1.16-1.42 0.27-0.35 0.7-0.96 0.96-1.35s0.7-1.1 0.96-1.57c0.27-0.47 0.63-1.17 0.81-1.56 0.18-0.38 0.47-1.04 0.64-1.47s0.43-1.14 0.57-1.59c0.15-0.45 0.34-1.09 0.42-1.43 0.09-0.33 0.24-0.97 0.33-1.41 0.09-0.45 0.2-1.16 0.26-1.59 0.05-0.42 0.13-1.17 0.16-1.65 0.04-0.48 0.07-1.26 0.07-1.74s-0.03-1.28-0.07-1.78c-0.03-0.5-0.12-1.32-0.19-1.82-0.07-0.49-0.22-1.3-0.33-1.8-0.11-0.49-0.31-1.29-0.45-1.78-0.14-0.48-0.42-1.3-0.62-1.82-0.2-0.51-0.56-1.35-0.8-1.86s-0.6-1.19-0.78-1.52c-0.19-0.33-0.64-1.05-1-1.6-0.37-0.55-0.98-1.4-1.36-1.88s-1.22-1.4-1.87-2.04c-0.64-0.64-1.53-1.46-1.98-1.81-0.44-0.36-1.1-0.85-1.45-1.1-0.36-0.25-1.03-0.68-1.49-0.96s-1.31-0.73-1.88-1.01-1.38-0.64-1.81-0.81c-0.42-0.17-1.08-0.41-1.45-0.53-0.38-0.12-1.12-0.33-1.66-0.47-0.53-0.14-1.2-0.29-1.47-0.33l-0.5-0.09v-43.04l0.6-0.08c0.33-0.04 1.12-0.18 1.74-0.3 0.64-0.13 1.67-0.37 2.3-0.55 0.64-0.17 1.53-0.44 2-0.6 0.46-0.16 1.21-0.44 1.65-0.62 0.44-0.17 1.18-0.49 1.64-0.71 0.47-0.21 1.24-0.59 1.71-0.85 0.47-0.25 1.16-0.64 1.52-0.86 0.36-0.21 0.92-0.57 1.24-0.78 0.32-0.22 0.9-0.62 1.29-0.9s0.74-0.53 0.78-0.54c0.03-0.02 7.36 7.27 16.28 16.2l16.22 16.22-0.28 0.5c-0.15 0.28-0.43 0.83-0.61 1.22-0.18 0.4-0.45 1.06-0.59 1.48-0.14 0.41-0.34 1.09-0.45 1.5-0.1 0.42-0.23 1.08-0.3 1.46-0.09 0.56-0.12 1.05-0.12 2.42 0 1.34 0.03 1.87 0.12 2.45 0.07 0.41 0.22 1.16 0.35 1.65 0.12 0.5 0.34 1.23 0.48 1.62 0.15 0.39 0.44 1.09 0.67 1.55 0.22 0.47 0.6 1.17 0.84 1.56s0.64 0.97 0.88 1.29 0.71 0.89 1.05 1.26c0.33 0.38 0.89 0.93 1.25 1.24 0.35 0.3 0.87 0.73 1.16 0.94 0.28 0.22 0.78 0.56 1.1 0.76s0.91 0.54 1.32 0.75c0.41 0.2 1.08 0.51 1.49 0.67s1.05 0.38 1.43 0.49c0.37 0.11 0.97 0.26 1.32 0.33s0.98 0.17 1.41 0.23c0.45 0.05 1.32 0.09 2.02 0.09 0.72 0 1.57-0.04 2.04-0.1 0.44-0.05 1.08-0.15 1.42-0.23 0.34-0.07 0.92-0.22 1.3-0.33 0.37-0.1 1.01-0.32 1.42-0.48s1.04-0.44 1.39-0.62c0.36-0.18 0.91-0.48 1.23-0.68 0.31-0.19 0.89-0.59 1.29-0.88 0.39-0.3 0.97-0.77 1.28-1.05s0.8-0.77 1.09-1.09 0.71-0.82 0.93-1.11c0.23-0.28 0.6-0.8 0.83-1.16s0.57-0.92 0.75-1.26 0.46-0.92 0.61-1.3c0.16-0.38 0.41-1.05 0.56-1.5 0.14-0.45 0.35-1.25 0.45-1.77 0.11-0.53 0.23-1.31 0.27-1.74 0.05-0.49 0.06-1.26 0.04-2.1-0.02-0.73-0.08-1.61-0.14-1.96-0.05-0.35-0.16-0.92-0.24-1.27-0.07-0.34-0.27-1.04-0.44-1.56s-0.46-1.27-0.64-1.67-0.51-1.04-0.73-1.42c-0.21-0.38-0.58-0.96-0.8-1.28s-0.64-0.86-0.92-1.19c-0.28-0.34-0.86-0.96-1.29-1.37-0.42-0.41-1.06-0.96-1.41-1.23-0.36-0.27-0.86-0.63-1.12-0.79-0.25-0.16-0.72-0.44-1.03-0.62s-0.93-0.48-1.38-0.67c-0.44-0.2-1.08-0.44-1.42-0.56-0.34-0.11-0.91-0.27-1.26-0.36-0.36-0.09-0.91-0.2-1.23-0.25-0.32-0.06-0.89-0.13-1.26-0.17-0.36-0.04-1.09-0.07-1.61-0.07s-1.32 0.05-1.77 0.1-1.17 0.17-1.61 0.26c-0.44 0.1-1.26 0.32-1.81 0.5-0.66 0.22-1.4 0.54-2.18 0.92l-1.18 0.59-16.21-16.21c-8.92-8.9-16.22-16.22-16.22-16.25 0-0.02 0.24-0.37 0.54-0.77s0.68-0.95 0.86-1.22c0.18-0.26 0.53-0.82 0.78-1.24 0.26-0.41 0.67-1.13 0.92-1.6s0.65-1.25 0.87-1.74c0.23-0.49 0.58-1.31 0.79-1.82 0.2-0.52 0.5-1.33 0.65-1.81 0.16-0.48 0.4-1.3 0.54-1.81 0.14-0.52 0.36-1.45 0.48-2.08 0.13-0.62 0.27-1.43 0.33-1.81 0.05-0.37 0.14-1.16 0.2-1.75 0.08-0.73 0.11-1.67 0.12-3 0-1.07-0.04-2.34-0.08-2.82-0.05-0.48-0.12-1.21-0.18-1.61-0.05-0.41-0.18-1.23-0.29-1.81s-0.32-1.56-0.48-2.17c-0.15-0.61-0.42-1.52-0.58-2.04-0.17-0.51-0.51-1.44-0.76-2.07-0.25-0.62-0.72-1.69-1.05-2.37-0.34-0.67-0.85-1.63-1.14-2.13-0.29-0.49-0.79-1.28-1.1-1.74-0.31-0.47-0.76-1.11-0.99-1.43-0.24-0.32-0.43-0.59-0.43-0.61s9.2-9.24 20.44-20.48l20.44-20.44 0.13 0.09c0.07 0.05 0.41 0.34 0.76 0.63 0.36 0.3 0.98 0.78 1.39 1.08 0.41 0.29 1.06 0.73 1.45 0.97s0.99 0.59 1.34 0.78 1.01 0.52 1.48 0.74c0.46 0.21 1.27 0.54 1.8 0.74 0.52 0.19 1.37 0.47 1.89 0.61 0.51 0.15 1.37 0.35 1.9 0.46 0.54 0.1 1.37 0.24 1.85 0.31 0.69 0.09 1.31 0.11 3.01 0.11 1.35 0 2.38-0.03 2.81-0.08 0.38-0.05 1.1-0.16 1.62-0.24 0.52-0.09 1.33-0.27 1.82-0.39 0.48-0.12 1.17-0.31 1.52-0.42 0.35-0.12 1.05-0.36 1.54-0.56 0.5-0.19 1.35-0.56 1.88-0.83 0.54-0.26 1.32-0.68 1.74-0.93s1.09-0.68 1.49-0.95c0.39-0.28 1.05-0.77 1.46-1.09 0.41-0.33 1.07-0.89 1.46-1.25s1.02-1 1.4-1.42 0.9-1.02 1.15-1.34c0.25-0.31 0.68-0.88 0.95-1.26s0.72-1.07 1-1.54 0.69-1.23 0.93-1.69c0.23-0.46 0.57-1.2 0.75-1.64 0.19-0.43 0.48-1.21 0.65-1.73s0.4-1.3 0.5-1.72c0.11-0.43 0.27-1.17 0.36-1.65s0.21-1.3 0.28-1.81c0.08-0.7 0.11-1.42 0.11-2.79 0-1.36-0.03-2.1-0.11-2.81-0.07-0.54-0.19-1.36-0.28-1.82-0.08-0.47-0.25-1.24-0.38-1.72-0.12-0.47-0.33-1.18-0.46-1.57-0.13-0.4-0.36-1.05-0.52-1.46s-0.52-1.21-0.8-1.78-0.74-1.42-1.03-1.9-0.73-1.14-0.96-1.49c-0.25-0.34-0.74-0.99-1.09-1.43-0.36-0.45-1.17-1.34-1.81-1.98s-1.54-1.46-1.98-1.82c-0.44-0.35-1.09-0.84-1.43-1.08-0.35-0.24-0.94-0.63-1.33-0.86-0.38-0.24-1.08-0.63-1.54-0.87s-1.25-0.61-1.75-0.83c-0.5-0.21-1.32-0.52-1.81-0.69-0.5-0.16-1.34-0.41-1.87-0.54-0.53-0.14-1.42-0.33-1.98-0.42-0.55-0.09-1.29-0.19-1.64-0.23-0.36-0.04-1.38-0.08-2.27-0.09l0.02-0.01zm-0.03 8.47c0.77 0.01 1.68 0.07 2.04 0.12s0.93 0.16 1.26 0.23c0.34 0.07 0.88 0.21 1.2 0.3 0.32 0.1 0.91 0.3 1.32 0.46s1.12 0.48 1.58 0.71c0.45 0.24 1.2 0.68 1.66 0.98 0.46 0.31 1.12 0.81 1.48 1.11 0.36 0.29 0.98 0.87 1.37 1.29 0.39 0.41 0.96 1.06 1.26 1.46 0.29 0.39 0.7 0.98 0.91 1.3 0.2 0.32 0.56 0.98 0.8 1.46s0.55 1.21 0.7 1.62c0.15 0.4 0.34 1 0.43 1.32 0.1 0.32 0.24 0.96 0.33 1.42 0.08 0.46 0.19 1.21 0.23 1.65 0.05 0.5 0.06 1.26 0.04 1.97-0.02 0.65-0.1 1.56-0.17 2.03s-0.23 1.25-0.36 1.73-0.35 1.2-0.49 1.6c-0.15 0.4-0.46 1.11-0.68 1.57-0.23 0.46-0.6 1.13-0.83 1.49-0.22 0.36-0.61 0.93-0.87 1.27-0.25 0.33-0.7 0.87-1 1.2-0.3 0.32-0.79 0.81-1.08 1.09-0.3 0.27-0.78 0.67-1.06 0.9-0.29 0.22-0.82 0.59-1.17 0.83-0.36 0.23-0.99 0.6-1.4 0.81-0.4 0.21-1.06 0.52-1.45 0.68s-1.05 0.39-1.46 0.52c-0.41 0.12-1.13 0.3-1.59 0.39s-1.14 0.19-1.51 0.23c-0.37 0.05-1.2 0.08-1.84 0.08-0.67 0-1.53-0.05-2.01-0.11-0.46-0.05-1.18-0.18-1.59-0.27s-1.06-0.27-1.45-0.39c-0.39-0.13-0.92-0.31-1.17-0.41s-0.68-0.29-0.96-0.42c-0.29-0.14-0.75-0.38-1.04-0.54s-0.78-0.46-1.1-0.68c-0.32-0.21-0.86-0.6-1.2-0.87s-0.97-0.84-1.39-1.27c-0.43-0.43-1.01-1.06-1.27-1.39-0.27-0.34-0.67-0.88-0.88-1.2-0.22-0.33-0.54-0.86-0.72-1.19-0.19-0.33-0.47-0.89-0.63-1.24-0.16-0.36-0.42-1.02-0.57-1.47-0.15-0.46-0.36-1.14-0.45-1.54-0.09-0.39-0.21-0.99-0.27-1.33-0.05-0.34-0.12-1.06-0.15-1.59-0.04-0.55-0.04-1.41-0.01-1.94s0.11-1.26 0.16-1.64c0.06-0.37 0.18-0.97 0.26-1.33 0.08-0.35 0.24-0.93 0.35-1.27 0.11-0.35 0.32-0.92 0.47-1.26 0.14-0.35 0.42-0.94 0.61-1.32 0.19-0.37 0.55-0.99 0.81-1.38 0.25-0.39 0.59-0.89 0.76-1.1 0.16-0.22 0.56-0.69 0.88-1.06s0.89-0.94 1.26-1.27c0.38-0.33 0.93-0.79 1.23-1.02 0.31-0.23 0.83-0.59 1.17-0.8s1.01-0.57 1.49-0.81 1.2-0.56 1.6-0.7c0.4-0.15 1.11-0.37 1.58-0.49s1.14-0.27 1.48-0.33c0.33-0.05 0.86-0.13 1.16-0.16s1.18-0.04 1.94-0.03zm-152.54 21.16c0.43 0.01 1.07 0.08 1.44 0.15 0.36 0.08 0.87 0.22 1.13 0.31s0.7 0.28 0.99 0.43c0.28 0.14 0.73 0.4 1 0.58s0.79 0.64 1.17 1.01c0.38 0.38 0.83 0.91 1.01 1.17 0.18 0.27 0.44 0.72 0.59 1.01 0.14 0.28 0.33 0.73 0.42 0.98 0.1 0.26 0.23 0.76 0.3 1.1 0.07 0.35 0.15 0.92 0.17 1.28 0.03 0.38 0.01 0.9-0.03 1.26-0.04 0.34-0.13 0.86-0.2 1.16s-0.24 0.81-0.37 1.13c-0.12 0.32-0.37 0.82-0.53 1.11-0.17 0.29-0.44 0.7-0.6 0.91s-0.53 0.61-0.81 0.89c-0.28 0.27-0.75 0.67-1.04 0.88s-0.8 0.51-1.13 0.67-0.79 0.36-1.02 0.44c-0.23 0.07-0.67 0.19-0.97 0.26s-0.89 0.14-1.3 0.16c-0.44 0.03-1 0.01-1.4-0.03-0.36-0.04-0.91-0.15-1.23-0.23-0.32-0.09-0.84-0.27-1.17-0.41-0.32-0.14-0.81-0.4-1.09-0.57s-0.75-0.52-1.05-0.77c-0.31-0.26-0.73-0.67-0.95-0.93-0.21-0.26-0.55-0.73-0.75-1.05-0.2-0.31-0.47-0.83-0.6-1.14s-0.31-0.83-0.39-1.14c-0.09-0.32-0.19-0.87-0.23-1.23-0.05-0.4-0.06-0.96-0.04-1.4 0.02-0.41 0.1-0.99 0.16-1.3 0.07-0.3 0.19-0.74 0.27-0.97s0.27-0.69 0.43-1.02 0.46-0.83 0.65-1.1c0.2-0.27 0.49-0.64 0.66-0.82 0.16-0.18 0.48-0.49 0.71-0.69 0.22-0.21 0.6-0.5 0.84-0.66s0.69-0.42 1.01-0.58 0.77-0.35 1-0.42c0.24-0.08 0.61-0.18 0.83-0.24 0.22-0.05 0.62-0.13 0.87-0.16 0.26-0.03 0.82-0.05 1.25-0.03zm67.39 50.83c0.95-0.01 1.91 0.03 2.53 0.09 0.56 0.05 1.43 0.17 1.95 0.26s1.4 0.27 1.94 0.41 1.31 0.36 1.7 0.49c0.39 0.14 0.99 0.35 1.32 0.49 0.34 0.13 0.94 0.39 1.34 0.57s1.05 0.51 1.45 0.73c0.41 0.22 1.07 0.61 1.48 0.87s1.1 0.73 1.52 1.05c0.43 0.31 1.09 0.83 1.46 1.16 0.37 0.32 1.12 1.03 1.65 1.58s1.25 1.35 1.6 1.77c0.34 0.43 0.9 1.19 1.23 1.69 0.34 0.49 0.8 1.22 1.02 1.61 0.23 0.39 0.61 1.12 0.85 1.62s0.56 1.21 0.7 1.58c0.15 0.38 0.4 1.06 0.55 1.52 0.15 0.47 0.38 1.27 0.51 1.78 0.13 0.52 0.29 1.28 0.36 1.69s0.18 1.16 0.24 1.68c0.08 0.67 0.11 1.43 0.12 2.68 0 0.96-0.04 2.09-0.08 2.49-0.05 0.41-0.16 1.19-0.25 1.73s-0.26 1.4-0.38 1.9-0.34 1.27-0.49 1.73c-0.15 0.45-0.41 1.17-0.58 1.6s-0.45 1.08-0.63 1.46c-0.17 0.37-0.53 1.05-0.79 1.52-0.26 0.46-0.68 1.16-0.94 1.55s-0.69 1.01-0.97 1.37c-0.27 0.37-0.81 1.02-1.19 1.46s-1.06 1.14-1.51 1.57c-0.44 0.43-1.17 1.07-1.61 1.43-0.44 0.35-1.08 0.84-1.43 1.08-0.34 0.24-0.94 0.63-1.33 0.87-0.38 0.23-1.07 0.62-1.53 0.86-0.47 0.24-1.25 0.61-1.75 0.83-0.5 0.21-1.3 0.51-1.78 0.68-0.48 0.16-1.27 0.4-1.75 0.52-0.48 0.13-1.27 0.3-1.75 0.39s-1.26 0.21-1.74 0.26c-0.48 0.06-1.52 0.12-2.3 0.14-0.84 0.03-1.8 0.01-2.35-0.03-0.52-0.05-1.28-0.12-1.69-0.18-0.41-0.05-1.04-0.15-1.39-0.23-0.36-0.07-0.99-0.21-1.4-0.31s-1.08-0.29-1.49-0.43c-0.41-0.13-1.15-0.39-1.64-0.59-0.5-0.19-1.37-0.58-1.93-0.86s-1.31-0.69-1.68-0.91c-0.36-0.22-0.88-0.55-1.15-0.73s-0.75-0.52-1.07-0.76-0.87-0.68-1.22-0.97c-0.36-0.3-1.02-0.91-1.47-1.35-0.45-0.45-1.04-1.07-1.32-1.39-0.27-0.32-0.8-0.99-1.17-1.48-0.37-0.5-0.91-1.28-1.2-1.74-0.29-0.47-0.74-1.26-1-1.76s-0.62-1.26-0.8-1.68-0.49-1.23-0.68-1.8c-0.2-0.57-0.47-1.5-0.61-2.08-0.14-0.57-0.32-1.39-0.39-1.82s-0.16-1.04-0.2-1.35-0.09-1.11-0.12-1.77c-0.03-0.65-0.03-1.72 0-2.36 0.03-0.65 0.1-1.54 0.16-1.99 0.05-0.45 0.16-1.12 0.23-1.49 0.07-0.38 0.23-1.07 0.35-1.56 0.12-0.48 0.34-1.23 0.48-1.68 0.15-0.44 0.42-1.17 0.6-1.62 0.18-0.44 0.54-1.23 0.8-1.75s0.62-1.2 0.81-1.52c0.18-0.32 0.59-0.95 0.9-1.42 0.31-0.46 0.87-1.22 1.24-1.68 0.38-0.46 1.04-1.21 1.47-1.67 0.44-0.45 1.11-1.09 1.49-1.43 0.37-0.33 0.97-0.83 1.33-1.1 0.35-0.28 0.94-0.7 1.29-0.94 0.36-0.24 0.98-0.63 1.38-0.86 0.4-0.24 1.07-0.61 1.49-0.82s1.11-0.53 1.54-0.7c0.42-0.18 1.08-0.43 1.45-0.56 0.37-0.14 1.08-0.36 1.57-0.5 0.49-0.13 1.33-0.33 1.88-0.44 0.54-0.1 1.37-0.24 1.85-0.29 0.49-0.06 0.99-0.11 1.14-0.12 0.14-0.02 0.94-0.03 1.78-0.04zm67.84 84.7c0.51-0.01 1.09 0.03 1.46 0.09 0.33 0.06 0.84 0.18 1.13 0.27 0.28 0.09 0.83 0.31 1.22 0.51 0.4 0.19 0.97 0.54 1.27 0.76 0.31 0.23 0.81 0.68 1.11 1 0.31 0.33 0.72 0.83 0.91 1.13 0.2 0.29 0.45 0.72 0.56 0.94 0.11 0.23 0.31 0.71 0.43 1.07s0.26 0.93 0.32 1.27c0.05 0.34 0.1 0.97 0.1 1.39 0 0.43-0.05 1.06-0.1 1.39-0.06 0.34-0.2 0.91-0.32 1.28-0.12 0.36-0.33 0.87-0.46 1.13s-0.36 0.65-0.5 0.86c-0.15 0.21-0.45 0.61-0.67 0.87-0.23 0.27-0.56 0.62-0.75 0.79-0.19 0.16-0.52 0.43-0.74 0.59s-0.69 0.44-1.04 0.62-0.87 0.4-1.15 0.5c-0.28 0.09-0.81 0.23-1.16 0.3-0.45 0.08-0.93 0.12-1.53 0.12-0.51 0.01-1.12-0.04-1.47-0.1-0.33-0.05-0.86-0.19-1.18-0.29-0.33-0.11-0.88-0.35-1.24-0.53s-0.89-0.51-1.18-0.72c-0.28-0.22-0.71-0.58-0.95-0.82-0.23-0.23-0.6-0.67-0.82-0.96-0.22-0.3-0.56-0.86-0.76-1.25-0.19-0.39-0.42-0.95-0.51-1.24s-0.21-0.79-0.26-1.11c-0.06-0.31-0.1-0.95-0.1-1.43s0.04-1.11 0.1-1.43c0.05-0.31 0.2-0.87 0.32-1.23s0.31-0.84 0.42-1.07c0.12-0.22 0.37-0.65 0.56-0.95s0.63-0.82 0.96-1.17c0.34-0.35 0.84-0.79 1.13-1 0.28-0.2 0.8-0.51 1.15-0.69s0.91-0.41 1.25-0.52c0.33-0.1 0.84-0.23 1.13-0.28 0.28-0.05 0.9-0.09 1.36-0.09zm-164.87 16.97c1.33 0.02 1.84 0.05 2.46 0.16 0.43 0.07 1.11 0.22 1.52 0.33 0.41 0.1 1.09 0.31 1.51 0.46s1.22 0.5 1.78 0.78c0.55 0.27 1.36 0.73 1.78 1.02 0.43 0.28 1.03 0.71 1.33 0.95s0.9 0.79 1.33 1.22 0.98 1.03 1.22 1.33 0.67 0.9 0.96 1.33c0.28 0.43 0.76 1.27 1.06 1.87 0.32 0.67 0.66 1.49 0.86 2.08 0.17 0.53 0.39 1.3 0.48 1.71s0.21 1.12 0.27 1.58c0.07 0.52 0.11 1.33 0.11 2.11-0.01 0.78-0.05 1.55-0.11 2.04-0.06 0.42-0.16 1.06-0.24 1.42-0.07 0.35-0.23 0.98-0.36 1.39-0.12 0.41-0.35 1.05-0.5 1.43-0.16 0.38-0.42 0.96-0.59 1.29-0.16 0.33-0.46 0.86-0.66 1.19-0.2 0.32-0.6 0.91-0.89 1.3s-0.76 0.96-1.04 1.28c-0.28 0.31-0.77 0.8-1.09 1.09s-0.82 0.71-1.1 0.93c-0.29 0.22-0.82 0.6-1.18 0.84-0.36 0.23-1.02 0.61-1.46 0.83-0.44 0.23-1.1 0.53-1.47 0.68-0.37 0.14-1.03 0.36-1.45 0.49s-1.15 0.3-1.61 0.39c-0.47 0.09-1.23 0.19-1.69 0.23-0.5 0.05-1.3 0.07-2 0.05-0.65-0.02-1.51-0.09-1.92-0.15s-1.18-0.22-1.72-0.35c-0.53-0.14-1.26-0.36-1.62-0.49-0.35-0.13-1.11-0.46-1.68-0.74s-1.39-0.75-1.84-1.05c-0.44-0.29-1.02-0.71-1.28-0.91-0.26-0.21-0.75-0.65-1.09-0.97-0.35-0.33-0.9-0.92-1.24-1.31s-0.87-1.1-1.18-1.57-0.75-1.21-0.97-1.63c-0.21-0.43-0.52-1.11-0.68-1.51s-0.39-1.06-0.51-1.47-0.28-1.05-0.35-1.42c-0.08-0.38-0.17-0.94-0.22-1.26-0.05-0.34-0.08-1.22-0.08-2.08 0-1.09 0.03-1.7 0.12-2.33 0.06-0.46 0.23-1.27 0.36-1.81 0.14-0.53 0.35-1.24 0.48-1.58 0.12-0.34 0.34-0.88 0.48-1.2 0.14-0.33 0.41-0.86 0.6-1.2 0.18-0.34 0.52-0.89 0.74-1.22 0.22-0.34 0.58-0.84 0.79-1.1 0.21-0.27 0.6-0.72 0.86-1.01 0.27-0.28 0.74-0.76 1.06-1.05 0.33-0.3 0.86-0.74 1.18-0.99 0.33-0.25 0.89-0.64 1.26-0.87 0.37-0.24 1.05-0.62 1.51-0.84 0.47-0.22 1.12-0.52 1.46-0.65 0.33-0.13 0.96-0.33 1.39-0.45s1.02-0.26 1.31-0.32c0.3-0.06 0.84-0.15 1.2-0.2 0.46-0.06 1.17-0.08 2.35-0.07zm97.63 8.43c0.39 0.02 1 0.06 1.36 0.09 0.36 0.04 1.02 0.14 1.48 0.23s1.16 0.26 1.56 0.38c0.39 0.12 1.05 0.35 1.46 0.52 0.41 0.16 1.08 0.47 1.49 0.69 0.41 0.21 1.1 0.63 1.55 0.92 0.44 0.3 1.04 0.74 1.32 0.97 0.29 0.24 0.83 0.73 1.19 1.09 0.37 0.37 0.92 0.96 1.22 1.33 0.3 0.36 0.77 0.99 1.03 1.39 0.27 0.4 0.7 1.15 0.96 1.66 0.26 0.52 0.61 1.29 0.77 1.72s0.38 1.11 0.49 1.52 0.25 1.07 0.33 1.47c0.07 0.39 0.16 1.11 0.2 1.58 0.05 0.52 0.06 1.29 0.04 1.93-0.02 0.59-0.1 1.45-0.17 1.91s-0.21 1.19-0.32 1.62-0.3 1.08-0.43 1.44c-0.13 0.37-0.36 0.97-0.53 1.35-0.16 0.37-0.5 1.03-0.75 1.46-0.24 0.44-0.64 1.07-0.89 1.41-0.24 0.34-0.67 0.89-0.96 1.23-0.28 0.34-0.8 0.9-1.16 1.23-0.35 0.34-0.94 0.85-1.31 1.14-0.38 0.29-0.98 0.72-1.36 0.96-0.37 0.24-1.11 0.65-1.65 0.91-0.58 0.29-1.4 0.62-2.04 0.83-0.59 0.2-1.44 0.43-1.88 0.52s-1.06 0.2-1.38 0.24c-0.35 0.05-1.2 0.09-2.14 0.09-1.16-0.01-1.74-0.04-2.33-0.12-0.42-0.07-1.21-0.23-1.74-0.37-0.54-0.13-1.3-0.36-1.69-0.51-0.4-0.14-1-0.39-1.34-0.55s-0.86-0.43-1.16-0.59c-0.29-0.17-0.79-0.48-1.1-0.69s-0.87-0.62-1.23-0.91c-0.37-0.29-0.97-0.84-1.35-1.22-0.37-0.38-0.9-0.96-1.17-1.3-0.27-0.33-0.72-0.93-0.99-1.34s-0.74-1.24-1.04-1.85c-0.29-0.6-0.66-1.44-0.8-1.86-0.15-0.42-0.34-1.06-0.43-1.41s-0.22-0.98-0.29-1.39-0.15-1.21-0.19-1.78c-0.05-0.74-0.05-1.33 0-2.05 0.04-0.55 0.13-1.34 0.2-1.75 0.07-0.42 0.19-1.01 0.26-1.31s0.25-0.88 0.38-1.29c0.14-0.42 0.41-1.11 0.6-1.54 0.2-0.44 0.57-1.15 0.82-1.59 0.26-0.44 0.75-1.18 1.09-1.63 0.39-0.53 0.98-1.2 1.6-1.81 0.57-0.57 1.28-1.2 1.71-1.53 0.41-0.3 0.99-0.7 1.28-0.89 0.3-0.18 0.88-0.51 1.3-0.72 0.41-0.21 1.06-0.5 1.43-0.65 0.36-0.14 0.93-0.34 1.26-0.45 0.33-0.1 0.93-0.25 1.34-0.34s0.97-0.2 1.25-0.24 0.88-0.1 1.32-0.12c0.45-0.03 1.14-0.04 1.53-0.03zm-151.43 70.26c-6.42 0-11.17 4.05-12.29 10.2-1.4 7.26 3.07 12.99 10.19 12.99 6.29 0 11.18-4.33 12.29-10.06 1.4-7.54-3.07-13.13-10.19-13.13zm327.3 0c-6.42 0-11.17 4.05-12.29 10.2-1.4 7.26 3.07 12.99 10.19 12.99 6.29 0 11.18-4.33 12.29-10.06 1.4-7.54-3.07-13.13-10.19-13.13zm-388.27 4.33c-18.85 0-34.36 7.54-37.71 27.09-3.35 19.83 10.2 29.05 25.14 33.38 10.33 2.93 17.46 5.73 16.34 12.71-1.12 6.56-8.24 9.77-16.34 9.77-8.66 0-16.06-3.21-23.74-9.21-1.26-0.98-2.51-0.98-3.49 0.28l-10.06 12.42c-0.97 1.26-0.83 2.52 0.28 3.5 9.5 8.37 19.97 13.54 34.64 13.54 18.15 0 36.58-6 41.05-27.79 4.61-23.6-15.64-30.72-28.35-34.63-8.93-2.65-14.8-5.03-13.68-11.73 1.12-5.59 5.86-9.22 13.4-9.22 7.96 0 16.2 2.8 22.49 6.84 1.26 0.84 2.37 0.7 3.35-0.41l9.78-12.57c0.97-1.26 0.83-2.52-0.42-3.35-9.64-7.13-19.42-10.62-32.68-10.62zm332.11 11.59c-1.53 0-2.37 0.84-2.65 2.24l-10.47 59.91c-3.63 20.38 6.28 29.74 21.78 29.74 2.38 0 5.03-0.28 7.12-0.7 1.4-0.14 2.1-0.98 2.38-2.37l2.23-12.99c0.42-1.81-0.56-2.51-2.23-2.37h-3.77c-5.73 0-7.96-3.35-6.85-9.64l4.75-26.95h11.45c1.54 0 2.38-0.7 2.66-2.23l2.23-12.85c0.28-1.54-0.56-2.66-2.23-2.66h-11.17l0.83-16.61c0.14-1.54-0.7-2.52-2.37-2.52h-13.69zm-221.87 15.5c-8.66 0-18.85 2.1-27.09 5.59-1.26 0.56-1.82 1.4-2.1 2.51l-11.59 63.82c-0.28 1.68 0.56 2.66 2.1 2.66h16.06c1.39 0 2.23-0.7 2.51-2.24l9.5-52.37c1.95-0.97 5.02-1.67 8.09-1.67 6.29 0 9.22 3.91 7.69 12.84l-7.13 40.78c-0.28 1.54 0.56 2.66 2.24 2.66h15.78c1.4 0 2.37-0.84 2.51-2.24l6.84-38.26c0.84-4.75 0.84-9.36 0.14-13.27 2.52-1.39 6.01-2.51 9.36-2.51 6.7 0 9.92 3.91 8.38 12.84l-7.12 40.78c-0.14 1.54 0.56 2.66 2.23 2.66h15.78c1.4 0 2.38-0.84 2.52-2.24l6.98-38.26c3.35-19.83-6.43-34.08-25.7-34.08-6.98 0-14.1 2.1-20.67 5.59-4.32-3.49-10.33-5.59-17.31-5.59zm109.73 0c-11.31 0-21.78 2.52-28.49 6.57-0.83 0.56-0.83 1.53-0.42 2.79l4.33 11.45c0.56 1.54 1.68 1.82 3.22 1.12 4.18-1.96 10.47-3.21 16.61-3.21 8.8 0 10.76 3.77 9.5 10.61l-0.28 2.23c-3.49-0.69-7.68-1.11-11.87-1.11-17.87 0-29.33 6-31.7 19.55-2.79 15.22 7.12 26.39 26.67 26.39 10.76 0 21.09-2.09 29.05-4.89 1.26-0.42 1.82-1.39 2.1-2.65l6.28-35.33c3.77-20.95-6.01-33.52-25-33.52zm72.74 0c-17.74 0-31.7 9.08-34.77 26.68l-3.08 17.31c-3.49 19.83 7.96 32.4 26.82 32.4 8.37 0 16.47-1.81 24.02-6 1.53-0.84 1.81-1.96 1.11-3.36l-5.44-12c-0.7-1.4-1.96-1.68-3.35-0.84-4.47 2.65-9.22 4.05-13.13 4.05-6.84 0-10.61-4.33-8.94-12.85l2.93-16.48c1.26-6.84 5.73-10.75 13.13-10.75 3.91 0 7.68 1.12 10.75 2.93 1.4 0.84 2.38 0.7 3.35-0.42l8.24-10.61c0.84-1.26 0.7-2.52-0.41-3.35-5.59-4.05-12.43-6.71-21.23-6.71zm143.01 0c-16.89 0-28.63 6.01-31.56 20.11-3.07 15.08 7.82 23.32 21.51 26.12 5.58 1.25 10.47 2.37 9.49 6.7-0.69 3.21-4.05 5.31-10.75 5.31-6.56 0-12.71-1.96-18.15-6.01-1.26-0.84-2.38-0.7-3.35 0.56l-7.96 10.89c-0.84 1.12-0.84 2.38 0.42 3.35 7.68 6.29 16.75 9.36 28.34 9.36 17.46 0 29.89-6.84 32.68-21.64 2.93-16.34-10.47-23.05-21.23-25.42-6.7-1.54-11.17-2.79-10.33-6.98 0.56-3.49 3.77-4.61 8.94-4.61 5.86 0 11.17 1.26 15.5 3.77 1.4 0.7 2.51 0.56 3.35-0.7l8.24-11.03c0.98-1.26 0.84-2.51-0.56-3.35-7.54-4.33-14.94-6.43-24.58-6.43zm-387.6 1.96c-1.39 0-2.37 0.7-2.51 2.09l-12.01 67.87c-0.28 1.54 0.56 2.66 2.09 2.66h16.2c1.54 0 2.38-0.84 2.66-2.24l12.01-67.87c0.28-1.53-0.56-2.51-2.24-2.51h-16.2zm327.3 0c-1.39 0-2.37 0.7-2.51 2.09l-12.01 67.87c-0.28 1.54 0.56 2.66 2.09 2.66h16.2c1.54 0 2.38-0.84 2.66-2.24l12.01-67.87c0.27-1.53-0.56-2.51-2.24-2.51h-16.2zm-162.57 42.73c3.07 0 6.28 0.42 8.94 0.98l-1.96 12.15c-2.51 0.56-6.42 1.12-9.63 1.12-6.15 0-9.5-2.52-8.52-7.83 0.7-4.18 4.33-6.42 11.17-6.42z"
     fill="#000000" /></svg>