<?xml version="1.0" encoding="UTF-8" standalone="no"?>
<svg
   xmlns:dc="http://purl.org/dc/elements/1.1/"
   xmlns:cc="http://creativecommons.org/ns#"
   xmlns:rdf="http://www.w3.org/1999/02/22-rdf-syntax-ns#"
   xmlns:svg="http://www.w3.org/2000/svg"
   xmlns="http://www.w3.org/2000/svg"
   id="svg4"
   xml:space="preserve"
   enable-background="new 0 0 200 200"
   viewBox="0 0 200 200"
   y="0px"
   x="0px"
   version="1.1"><metadata
     id="metadata10"><rdf:RDF><cc:Work
         rdf:about=""><dc:format>image/svg+xml</dc:format><dc:type
           rdf:resource="http://purl.org/dc/dcmitype/StillImage" /></cc:Work></rdf:RDF></metadata><defs
     id="defs8" /><path
     id="path2"
     d="m109.72 40c-21.862 0-39.84 8.7459-43.727 31.418-3.8866 22.996 11.822 33.683 29.15 38.703 11.984 3.4008 20.243 6.6392 18.947 14.736-1.2956 7.6113-9.5546 11.336-18.947 11.336-10.04 0-18.622-3.7239-27.529-10.688-1.4575-1.1336-2.9152-1.1333-4.0488 0.32423l-11.655 14.41c-1.1335 1.4575-0.9713 2.9152 0.32423 4.0488 11.012 9.72 23.158 15.71 40.162 15.71 21.054 0 42.434-6.96 47.614-32.23 5.34-27.36-18.14-35.624-32.88-40.159-10.362-3.077-17.164-5.83-15.868-13.603 1.295-6.478 6.802-10.688 15.548-10.688 9.2308 0 18.785 3.2392 26.072 7.9355 1.4575 0.97166 2.7532 0.80923 3.8867-0.48632l11.336-14.576c1.1336-1.4575 0.97312-2.9131-0.48437-3.8848-11.174-8.2591-22.51-12.309-37.895-12.309z"
     fill="#5472fb" /></svg>